<svg width="84" height="84" viewBox="0 0 84 84" fill="none" xmlns="http://www.w3.org/2000/svg">
<g clip-path="url(#clip0)">
<path d="M84 49.9295C84 47.8261 83.1637 45.8625 81.7179 44.4206C83.3457 42.6357 84.175 40.2344 83.9616 37.7216C83.5309 33.2803 79.5236 29.8049 74.8298 29.8049H53.2178C54.2849 26.557 55.9998 20.6033 55.9998 15.8045C55.9998 8.21338 49.5495 1.80469 45.4998 1.80469C41.8462 1.80469 39.2597 3.85547 39.1546 3.93942C38.738 4.27588 38.5002 4.7764 38.5002 5.30447V17.1734L28.4168 39.0129L25.4662 40.4901C24.8747 40.7875 24.4998 41.3931 24.4998 42.0545V73.5545C24.4998 74.0204 24.6857 74.4645 25.0112 74.7939C26.516 76.2987 28.9064 77.2331 30.6143 77.7406C32.6792 78.4059 34.9723 78.8083 36.75 78.8083H68.88C72.6881 78.8083 76.027 76.25 76.8249 72.697C77.21 70.8737 76.9684 69.0325 76.1737 67.4399C78.7603 66.1345 80.5002 63.464 80.5002 60.4295C80.5002 59.1907 80.2163 58.0006 79.6844 56.9297C82.2639 55.6274 84 52.9608 84 49.9295Z" fill="#FFCC80"/>
<path d="M26.25 36.8047H8.74979C3.9234 36.8047 0 40.7281 0 45.5551V73.5547C0 78.3817 3.9234 82.3051 8.74979 82.3051H19.2498C24.0768 82.3051 28.0002 78.3817 28.0002 73.5547V38.5549C28.0002 37.5891 27.2158 36.8047 26.25 36.8047Z" fill="#F44336"/>
<path d="M19.2498 82.3049H8.74979C3.92725 82.3049 0 78.3815 0 73.5545V45.5549C0 40.7279 3.92725 36.8045 8.74979 36.8045H26.25C27.2158 36.8045 28.0002 37.5889 28.0002 38.5547V39.2231L28.42 39.0097L38.5002 17.1734V5.30447C38.5002 4.77255 38.7412 4.26883 39.1545 3.93622C39.2667 3.85226 41.8635 1.80469 45.4998 1.80469C49.5494 1.80469 55.9998 8.21338 55.9998 15.8045C55.9998 20.5924 54.2848 26.5531 53.2178 29.8049H74.8336C79.5447 29.8049 83.5552 33.2906 83.9615 37.7395C84.1891 40.2312 83.3598 42.6287 81.7249 44.4206C83.1637 45.8664 84 47.8261 84 49.9295C84 52.964 82.2607 55.6313 79.6773 56.9329C80.2163 58.0044 80.5002 59.1907 80.5002 60.4295C80.5002 63.464 78.7603 66.1345 76.1737 67.4329C76.9722 69.0293 77.2068 70.8667 76.8037 72.6938C76.0199 76.2359 72.688 78.8045 68.8768 78.8045H36.75C34.3173 78.8045 30.3939 78.0175 27.4856 76.5191C26.2673 79.8895 23.0367 82.3049 19.2498 82.3049ZM8.74979 40.3049C5.85562 40.3049 3.49979 42.6601 3.49979 45.5549V73.5545C3.49979 76.4493 5.85562 78.8045 8.74979 78.8045H19.2498C22.1446 78.8045 24.4998 76.4493 24.4998 73.5545C24.4998 72.8476 24.9272 72.2074 25.5816 71.9376C26.2397 71.6716 26.9883 71.819 27.4888 72.3157C29.141 73.971 33.9045 75.3047 36.75 75.3047H68.8768C71.0602 75.3047 72.9572 73.8909 73.3878 71.9376C73.7346 70.37 73.2725 68.8473 72.1208 67.7623C71.6242 67.2932 71.4454 66.5825 71.6588 65.9352C71.876 65.2879 72.4464 64.829 73.1219 64.7489C75.3303 64.4932 76.9998 62.6379 76.9998 60.4295C76.9998 59.2259 76.5102 58.0986 75.6174 57.2623C75.1208 56.7932 74.942 56.0825 75.1554 55.4352C75.3726 54.7879 75.943 54.329 76.6185 54.2489C78.8307 53.9932 80.5002 52.1379 80.5002 49.9295C80.5002 48.2985 79.5831 46.8149 78.1059 46.0625C77.5426 45.7715 77.1786 45.205 77.1574 44.5712C77.1331 43.938 77.4478 43.3426 77.9867 43.0139C79.7087 41.9532 80.6643 40.0524 80.4791 38.0612C80.2343 35.3939 77.756 33.3079 74.8369 33.3079H50.7498C50.1724 33.3079 49.6372 33.0246 49.3078 32.5523C48.9823 32.0761 48.9092 31.4705 49.1117 30.9354C49.147 30.8444 52.5 21.9645 52.5 15.8045C52.5 10.0719 47.4179 5.30447 45.4998 5.30447C43.9912 5.30447 42.728 5.85049 42 6.25296V17.5547C42 17.8066 41.9442 18.0584 41.8391 18.2898L31.3391 41.04C31.1712 41.4002 30.8873 41.6943 30.5342 41.8693L27.0338 43.6195C26.4878 43.8854 25.8475 43.8534 25.3329 43.5458C24.8151 43.2234 24.4998 42.6601 24.4998 42.0545V40.3049H8.74979Z" fill="black"/>
<path d="M26.25 75.3045C25.2842 75.3045 24.4998 74.5207 24.4998 73.5543V42.0543C24.4998 41.0885 25.2842 40.3047 26.25 40.3047C27.2158 40.3047 28.0002 41.0885 28.0002 42.0543V73.5543C28.0002 74.5207 27.2158 75.3045 26.25 75.3045Z" fill="black"/>
</g>
<defs>
<clipPath id="clip0">
<rect width="84" height="84" fill="white"/>
</clipPath>
</defs>
</svg>
