<svg width="84" height="84" viewBox="0 0 84 84" fill="none" xmlns="http://www.w3.org/2000/svg">
<g clip-path="url(#clip0)">
<path d="M83.6488 66.9361L69.9994 43.265C69.2784 42.0074 67.6742 41.5725 66.4166 42.2935C66.3378 42.3386 66.2616 42.3878 66.1881 42.4408L44.7638 57.8751C43.6709 58.664 43.3533 60.1525 44.0288 61.3189L56.3658 82.6854C56.8346 83.4975 57.7012 83.9979 58.6389 83.9979H58.8384C59.845 83.9214 60.7186 83.2744 61.0853 82.3337L66.4086 68.6423L80.9766 70.8472C81.9746 71.007 82.9743 70.5728 83.5385 69.7343C84.1112 68.9007 84.1542 67.8122 83.6488 66.9361Z" fill="#4CAF50"/>
<path d="M17.8116 42.4409C17.2128 42.019 16.4675 41.8597 15.7484 41.9999C15.022 42.1571 14.3961 42.615 14.0265 43.2599L0.350917 66.9363C-0.372893 68.1924 0.0587349 69.7974 1.31474 70.521C1.82971 70.8178 2.43015 70.9308 3.01779 70.8421L17.5806 68.6372L22.9091 82.3285C23.2741 83.2712 24.1481 83.9205 25.156 83.998H25.3555C26.2932 83.998 27.1598 83.4976 27.6286 82.6855L39.9656 61.319C40.6411 60.1526 40.3235 58.6641 39.2306 57.8752L17.8116 42.4409Z" fill="#4CAF50"/>
<path d="M41.9972 62.999C59.3934 62.999 73.4957 48.8966 73.4957 31.5005C73.4957 14.1043 59.3934 0.00195312 41.9972 0.00195312C24.6011 0.00195312 10.4987 14.1043 10.4987 31.5005C10.4987 48.8966 24.6011 62.999 41.9972 62.999Z" fill="#FFC107"/>
<path d="M41.9972 62.999C24.601 62.999 10.4987 48.8967 10.4987 31.5005C10.4987 14.1043 24.601 0.00195312 41.9972 0.00195312C59.3934 0.00195312 73.4957 14.1043 73.4957 31.5005C73.4784 48.8895 59.3862 62.9816 41.9972 62.999ZM41.9972 5.25171C27.5003 5.25171 15.7484 17.0036 15.7484 31.5005C15.7484 45.9973 27.5003 57.7493 41.9972 57.7493C56.4941 57.7493 68.246 45.9973 68.246 31.5005C68.2286 17.0108 56.4869 5.2691 41.9972 5.25171Z" fill="black"/>
<path d="M44.6221 47.25C43.1723 47.25 41.9972 46.0749 41.9972 44.6251V21.0012H39.3723C37.9226 21.0012 36.7475 19.8261 36.7475 18.3763C36.7475 16.9266 37.9226 15.7515 39.3723 15.7515H44.6221C46.0718 15.7515 47.247 16.9266 47.247 18.3763V44.6251C47.247 46.0749 46.0718 47.25 44.6221 47.25Z" fill="black"/>
<path d="M58.6389 83.9977C57.7012 83.9977 56.8347 83.4973 56.3658 82.6853L44.0289 61.3188C43.2957 60.0682 43.7152 58.4599 44.9659 57.7268C46.2165 56.9936 47.8248 57.4131 48.5579 58.6639C48.5638 58.6739 48.5696 58.6839 48.5753 58.6939L58.1771 75.3251L62.2824 64.7783C62.728 63.6336 63.908 62.9508 65.1225 63.1352L76.3728 64.8361L65.448 45.8845C64.7149 44.6339 65.1343 43.0256 66.3851 42.2925C67.6357 41.5593 69.2439 41.9788 69.9771 43.2296C69.983 43.2396 69.9887 43.2496 69.9945 43.2596L83.6438 66.9308C84.1486 67.8045 84.1078 68.8902 83.5388 69.7236C82.9696 70.5559 81.9737 70.9885 80.9769 70.8366L66.4141 68.6317L61.0856 82.323C60.719 83.2637 59.8454 83.9108 58.8387 83.9872L58.6389 83.9977Z" fill="black"/>
<path d="M25.3555 83.9984H25.156C24.1493 83.9219 23.2758 83.2749 22.9091 82.3342L17.5806 68.6376L3.01777 70.8425C1.58443 71.0592 0.246725 70.0731 0.029844 68.6397C-0.0590737 68.0521 0.0541242 67.4516 0.350899 66.9367L14.0003 43.2655C14.7167 42.0052 16.3192 41.5644 17.5794 42.281C18.8397 42.9975 19.2805 44.5999 18.5639 45.8602C18.5582 45.8704 18.5525 45.8804 18.5465 45.8904L7.62181 64.8368L18.8983 63.1358C20.1128 62.9514 21.2928 63.6342 21.7384 64.779L25.8437 75.3258L35.4193 58.6945C36.1524 57.444 37.7605 57.0245 39.0112 57.7575C40.2502 58.4837 40.6754 60.071 39.9655 61.3194L27.6286 82.6859C27.1598 83.498 26.2932 83.9984 25.3555 83.9984Z" fill="black"/>
</g>
<defs>
<clipPath id="clip0">
<rect width="84" height="84" fill="white"/>
</clipPath>
</defs>
</svg>
