<svg width="84" height="84" viewBox="0 0 84 84" fill="none" xmlns="http://www.w3.org/2000/svg">
<g clip-path="url(#clip0)">
<path d="M77.1097 69.8435C79.304 66.189 80.4694 62.0092 80.4829 57.7466C80.4829 47.7178 60.4146 24.1887 58.1261 21.5398C57.8467 21.2052 57.435 21.0096 56.9993 21.0044H44.4789C44.0431 21.0096 43.6314 21.2052 43.3522 21.5398C41.0639 24.1887 20.9955 47.7178 20.9955 57.7466C21.009 62.0092 22.1746 66.189 24.3688 69.8435H77.1097Z" fill="#4CAF50"/>
<path d="M73.047 2.3498C70.132 -0.94651 62.5492 3.37858 58.1961 6.30746C56.2015 3.47306 53.2482 0.00878906 50.7392 0.00878906C48.2302 0.00878906 45.2769 3.47306 43.2823 6.30746C38.9397 3.37513 31.3429 -0.949954 28.4314 2.3498C27.6244 3.28033 27.2437 4.50611 27.3816 5.73008C27.9451 12.2107 41.1372 22.922 42.6384 24.1188C42.9508 24.3696 43.3399 24.5054 43.7406 24.5037H57.7378C58.1344 24.5041 58.5194 24.3696 58.8295 24.1224C60.3307 22.9222 73.5264 12.2249 74.0863 5.73369C74.2295 4.50988 73.8525 3.28213 73.047 2.3498Z" fill="#4CAF50"/>
<path d="M64.7364 24.5033H36.7422C35.776 24.5033 34.9926 23.7199 34.9926 22.7536C34.9926 21.7873 35.776 21.0039 36.7422 21.0039H64.7364C65.7027 21.0039 66.4861 21.7873 66.4861 22.7536C66.4861 23.7199 65.7027 24.5033 64.7364 24.5033Z" fill="#388E3C"/>
<path d="M52.4889 49.4151V42.28C54.4171 42.749 55.8763 43.9526 55.9881 45.3734C56.0693 46.3397 56.9185 47.0574 57.8848 46.9762C58.8511 46.895 59.5687 46.0458 59.4875 45.0795C58.9059 41.5931 56.0142 38.9573 52.4889 38.7003V36.8141C52.4889 35.8478 51.7055 35.0645 50.7392 35.0645C49.7729 35.0645 48.9895 35.8478 48.9895 36.8141V38.7072C45.3007 38.9877 42.3477 41.88 41.991 45.5622C41.991 48.841 44.2865 51.0526 48.9895 52.2108V56.06C48.9895 57.0263 49.7729 57.8097 50.7392 57.8097C51.7055 57.8097 52.4889 57.0265 52.4889 56.0602V53.0263C54.8229 53.6982 55.9881 54.671 55.9881 56.0602C55.9402 56.9158 55.5162 57.7062 54.8299 58.2193C54.0888 58.8396 53.9909 59.9434 54.6113 60.6845C55.2316 61.4255 56.3354 61.5235 57.0765 60.9031C58.5678 59.7338 59.4532 57.955 59.4875 56.0602C59.4875 52.7814 57.1954 50.5735 52.4889 49.4151ZM45.4903 45.566C45.4903 44.0788 46.9776 42.7841 48.9895 42.2907V48.5894C46.6556 47.9246 45.4903 46.9517 45.4903 45.5626V45.566Z" fill="#FAFAFA"/>
<path d="M83.7968 67.5728C81.4026 62.734 75.9521 60.2267 70.72 61.5576L59.3999 64.3886C58.896 60.011 56.296 57.4425 51.1206 56.1512L19.6272 49.1527C18.7006 48.946 17.7785 49.5158 17.5487 50.4368L12.2998 71.4324C12.0688 72.3244 12.5693 73.2426 13.444 73.532L39.6221 82.2417C41.9137 83.2752 44.3792 83.8688 46.89 83.9914C50.4382 83.9914 54.5883 82.4411 63.7284 78.697L82.9743 69.9489C83.8538 69.5487 84.2424 68.5114 83.8422 67.6319C83.8332 67.612 83.8238 67.5925 83.8141 67.573L83.7968 67.5728Z" fill="#FFE082"/>
<path d="M20.9956 47.5114C21.0428 46.9793 20.8444 46.4548 20.4568 46.0872C17.4578 43.2457 5.46592 42.3255 1.86174 42.112C1.38212 42.0887 0.912998 42.2588 0.56001 42.5844C0.204398 42.9141 0.00165936 43.3766 0.000183105 43.8617V75.355C0.000183105 76.3213 0.78358 77.1047 1.74987 77.1047H12.2477C13.0058 77.1057 13.6783 76.6182 13.9134 75.8974C17.0268 66.6394 19.3952 57.1471 20.9956 47.5114Z" fill="#455A64"/>
<path d="M50.4768 69.8436C49.6733 69.8444 48.8715 69.7658 48.0833 69.6092L34.6147 66.9147C33.6678 66.7215 33.0567 65.7972 33.25 64.8501C33.4432 63.9032 34.3675 63.2922 35.3146 63.4854L48.7798 66.1799C50.054 66.4318 51.3682 66.4008 52.6291 66.0888L59.4456 64.3847C59.9127 66.2592 58.7724 68.1577 56.898 68.6258L53.4723 69.4832C52.4926 69.7271 51.4864 69.8482 50.4768 69.8436Z" fill="#FFCA28"/>
<path d="M12.2475 77.0552H1.74969C0.783397 77.0552 1.01422e-07 76.2719 1.01422e-07 75.3056V43.8123C-0.000163926 43.3302 0.198638 42.8693 0.54933 42.5386C0.898053 42.206 1.37013 42.0346 1.85106 42.0662C5.45524 42.2832 17.4473 43.2 20.4461 46.0414C20.8376 46.4071 21.04 46.9318 20.9954 47.4657C19.3973 57.1 17.0312 66.5912 13.9199 75.8482C13.6842 76.5713 13.0081 77.0593 12.2475 77.0552ZM3.49921 73.556H10.9702C13.7132 65.257 15.8613 56.7731 17.3983 48.1689C12.8959 46.7289 8.22174 45.8945 3.49921 45.688V73.556Z" fill="black"/>
<path d="M46.8901 83.9423C44.3841 83.8171 41.9237 83.2237 39.6362 82.1926L13.4442 73.4655C12.5271 73.1601 12.0312 72.1692 12.3367 71.2523C12.6421 70.3352 13.633 69.8393 14.5499 70.1447L40.7944 78.8928C47.093 81.2793 47.6145 81.4614 62.3219 75.4356L79.6713 67.5447C77.7136 65.165 74.5554 64.1336 71.5704 64.8993L58.1647 68.2481C57.2265 68.482 56.2763 67.9109 56.0424 66.9726C55.8085 66.0344 56.3796 65.0842 57.3179 64.8503L70.7235 61.5015C75.9559 60.1692 81.4072 62.6767 83.8003 67.5167C84.233 68.3806 83.8833 69.4319 83.0194 69.8646C82.9999 69.8743 82.9804 69.8838 82.9605 69.8926L63.7146 78.6407C54.5884 82.3922 50.4243 83.9423 46.8901 83.9423Z" fill="black"/>
<path d="M50.4804 69.7946C49.6756 69.7956 48.8727 69.717 48.0834 69.5602L32.8931 66.5229C31.9454 66.3348 31.3296 65.4138 31.5178 64.466C31.5178 64.4659 31.5179 64.4655 31.5179 64.4654C31.7061 63.5176 32.6271 62.9018 33.5748 63.09C33.575 63.09 33.5753 63.0901 33.5755 63.0901L48.7587 66.1275C50.0329 66.3796 51.3471 66.3484 52.608 66.0364L55.9673 65.1966C55.7503 62.0018 54.1931 60.4726 50.3195 59.5068L18.8715 52.5082C17.9274 52.2986 17.3321 51.3633 17.5418 50.4192C17.7514 49.475 18.6867 48.8798 19.6308 49.0894L51.1242 56.088C56.9224 57.5471 59.4875 60.5986 59.4875 66.0049V66.5543C59.4873 67.3573 58.9404 68.0571 58.1613 68.2514L53.4512 69.4307C52.4792 69.6713 51.4816 69.7935 50.4804 69.7946Z" fill="black"/>
<path d="M78.1526 64.9237C78.0255 64.9227 77.8988 64.9088 77.7747 64.8817C76.8309 64.6742 76.2341 63.7409 76.4416 62.7972C76.4428 62.7921 76.4439 62.7872 76.4451 62.7821C76.8046 61.1491 76.9852 59.4817 76.9839 57.8096C76.9839 50.6536 62.9869 31.9816 56.9121 24.5666H44.5597C41.8478 27.8314 29.2888 43.1826 26.129 51.385C25.7821 52.2875 24.7692 52.7379 23.8667 52.391C22.9643 52.0441 22.5138 51.0312 22.8608 50.1287C26.6014 40.4148 41.7568 22.4495 42.4042 21.6868C42.7368 21.2936 43.226 21.0671 43.7408 21.0674H57.7378C58.2606 21.0672 58.7561 21.3008 59.0886 21.7043C61.2756 24.3463 80.4831 47.8543 80.4831 57.8096C80.4847 59.7419 80.2759 61.6686 79.8603 63.5554C79.6815 64.355 78.9719 64.9237 78.1526 64.9237Z" fill="black"/>
<path d="M64.7364 24.5668H36.7422C35.776 24.5668 34.9926 23.7834 34.9926 22.8171C34.9926 21.8508 35.776 21.0674 36.7422 21.0674H64.7364C65.7027 21.0674 66.4861 21.8508 66.4861 22.8171C66.4861 23.7834 65.7027 24.5668 64.7364 24.5668Z" fill="black"/>
<path d="M57.7378 24.5666H43.7408C43.3442 24.5669 42.9592 24.4324 42.649 24.1852C41.1478 22.985 27.9521 12.2878 27.3957 5.79652C27.2563 4.57139 27.6372 3.34381 28.4455 2.41278C31.3534 -0.880077 38.9433 3.43812 43.2964 6.37045C45.2876 3.53605 48.2409 0.0717773 50.7533 0.0717773C53.2657 0.0717773 56.2192 3.53605 58.2102 6.37045C62.5387 3.43451 70.1391 -0.886966 73.047 2.41278C73.8553 3.34397 74.2362 4.57139 74.0968 5.79652C73.5334 12.2737 60.3412 22.9848 58.8435 24.1852C58.5297 24.4353 58.1392 24.57 57.7378 24.5666ZM44.3602 21.0674H57.1184C62.3673 16.8018 70.2826 9.14186 70.601 5.49208C70.6465 4.98113 70.4926 4.79217 70.4226 4.72919C69.3308 4.07127 63.641 6.74132 58.7561 10.2405C57.9705 10.8031 56.8775 10.6224 56.3148 9.83685C56.2988 9.81438 56.2832 9.79142 56.2681 9.76812C54.8888 7.31623 52.9854 5.19913 50.6938 3.56738C48.4581 5.23423 46.5913 7.34527 45.2105 9.76812C44.6858 10.5796 43.6027 10.812 42.7912 10.2873C42.7679 10.2722 42.745 10.2566 42.7225 10.2405C37.3652 6.39128 32.0497 4.15181 31.0314 4.74674C30.8766 4.96211 30.8206 5.23308 30.8774 5.49208C31.1959 9.13842 39.1182 16.8052 44.3602 21.0674Z" fill="black"/>
<path d="M55.9532 61.3091C54.9869 61.3082 54.2042 60.5242 54.205 59.5579C54.2055 59.0412 54.4341 58.5513 54.8299 58.2191C55.5151 57.7065 55.9389 56.9177 55.9881 56.0636C55.9881 54.3595 54.3295 53.2641 50.7742 52.6028L50.3928 52.5293C44.717 51.4795 41.9946 49.1595 41.9946 45.5658C42.542 41.2532 46.4152 38.1547 50.7427 38.5672C54.9008 38.158 58.688 40.9783 59.4874 45.0793C59.5681 46.0417 58.8539 46.8874 57.8917 46.9689C56.9433 47.0075 56.1228 46.3146 56.0021 45.3733C55.8481 43.5501 53.4931 42.063 50.7532 42.063C47.9049 42.063 45.5043 43.6657 45.5043 45.5622C45.5043 47.2699 47.1664 48.3617 50.7322 49.0265L51.1136 49.1C56.7824 50.1497 59.5118 52.4697 59.5118 56.06C59.4764 57.9517 58.5924 59.7273 57.1044 60.896C56.7829 61.1678 56.3741 61.3145 55.9532 61.3091Z" fill="black"/>
<path d="M50.7392 57.8097C49.7729 57.8097 48.9895 57.0263 48.9895 56.06V36.8141C48.9895 35.8479 49.7729 35.0645 50.7392 35.0645C51.7055 35.0645 52.4889 35.8479 52.4889 36.8141V56.06C52.4889 57.0263 51.7055 57.8097 50.7392 57.8097Z" fill="black"/>
</g>
<defs>
<clipPath id="clip0">
<rect width="84" height="84" fill="white"/>
</clipPath>
</defs>
</svg>
