<svg width="84" height="84" viewBox="0 0 84 84" fill="none" xmlns="http://www.w3.org/2000/svg">
<path d="M42.343 81.291C62.3456 81.291 78.561 65.0756 78.561 45.073C78.561 25.0703 62.3456 8.85498 42.343 8.85498C22.3403 8.85498 6.125 25.0703 6.125 45.073C6.125 65.0756 22.3403 81.291 42.343 81.291Z" fill="#FFE600"/>
<path d="M42 0.0805664C36.785 0.0805664 32.543 4.32607 32.543 9.54107C32.543 14.7561 36.785 19.0016 42 19.0016C47.215 19.0016 51.457 14.7596 51.457 9.54457C51.457 4.32957 47.215 0.0805664 42 0.0805664Z" fill="#F44336"/>
<path d="M42 83.9192C20.7725 83.9192 3.5 66.6467 3.5 45.4192C3.5 43.9702 4.676 42.7942 6.125 42.7942C7.574 42.7942 8.75 43.9702 8.75 45.4192C8.75 63.7522 23.667 78.6692 42 78.6692C60.333 78.6692 75.25 63.7522 75.25 45.4192C75.25 29.4942 63.917 15.7637 48.3035 12.7712C46.8825 12.4982 45.948 11.1227 46.221 9.69822C46.4905 8.27722 47.859 7.32522 49.294 7.61572C67.375 11.0807 80.5 26.9777 80.5 45.4192C80.5 66.6467 63.2275 83.9192 42 83.9192Z" fill="black"/>
<path d="M42 19.0016C36.785 19.0016 32.543 14.7596 32.543 9.54457C32.543 4.32957 36.785 0.0805664 42 0.0805664C47.215 0.0805664 51.457 4.32607 51.457 9.54107C51.457 14.7561 47.215 19.0016 42 19.0016ZM42 5.33057C39.6795 5.33057 37.793 7.22057 37.793 9.54107C37.793 11.8616 39.6795 13.7516 42 13.7516C44.3205 13.7516 46.207 11.8651 46.207 9.54457C46.207 7.22407 44.3205 5.33057 42 5.33057Z" fill="black"/>
<path d="M41.125 47.2502C40.453 47.2502 39.781 46.9947 39.27 46.4802L6.89498 14.1052C5.86948 13.0797 5.86948 11.4172 6.89498 10.3917C7.92048 9.36618 9.58298 9.36618 10.6085 10.3917L42.9835 42.7667C44.009 43.7922 44.009 45.4547 42.9835 46.4802C42.469 46.9947 41.797 47.2502 41.125 47.2502Z" fill="black"/>
</svg>
