<svg width="80" height="80" viewBox="0 0 80 80" fill="none" xmlns="http://www.w3.org/2000/svg">
<circle cx="40" cy="40" r="40" fill="#E8E8E8"/>
<path d="M65.3125 42.36V47.625C65.3125 48.8625 64.3 49.875 63.0625 49.875H16.9375C15.7 49.875 14.6875 48.8625 14.6875 47.625V30.1875C14.6875 27.7125 16.7125 25.6875 19.1875 25.6875H41.89C44.275 25.6875 46.57 26.6325 48.2575 28.32L53.2975 33.36C54.1525 34.215 55.3 34.6875 56.4925 34.6875H57.64C59.665 34.6875 61.6225 35.4975 63.0625 36.9375C64.5025 38.3775 65.3125 40.335 65.3125 42.36Z" fill="#607D8B"/>
<path d="M25.375 54.375C28.4816 54.375 31 51.8566 31 48.75C31 45.6434 28.4816 43.125 25.375 43.125C22.2684 43.125 19.75 45.6434 19.75 48.75C19.75 51.8566 22.2684 54.375 25.375 54.375Z" fill="#CFD8DC"/>
<path d="M51.25 53.6729C53.9689 53.6729 56.173 51.4688 56.173 48.7499C56.173 46.031 53.9689 43.8269 51.25 43.8269C48.5311 43.8269 46.327 46.031 46.327 48.7499C46.327 51.4688 48.5311 53.6729 51.25 53.6729Z" fill="#CFD8DC"/>
<path d="M25.375 55.3312C21.7457 55.3312 18.7937 52.3792 18.7937 48.7499C18.7937 45.1207 21.7457 42.1687 25.375 42.1687C29.0042 42.1687 31.9562 45.1207 31.9562 48.7499C31.9562 52.3792 29.0042 55.3312 25.375 55.3312ZM25.375 45.2062C23.4197 45.2062 21.8312 46.7969 21.8312 48.7499C21.8312 50.7029 23.422 52.2937 25.375 52.2937C27.328 52.2937 28.9187 50.7052 28.9187 48.7499C28.9187 46.7947 27.3302 45.2062 25.375 45.2062Z" fill="black"/>
<path d="M51.25 55.3312C47.6208 55.3312 44.6688 52.3792 44.6688 48.7499C44.6688 45.1207 47.6208 42.1687 51.25 42.1687C54.8793 42.1687 57.8313 45.1207 57.8313 48.7499C57.8313 52.3792 54.8793 55.3312 51.25 55.3312ZM51.25 45.2062C49.2948 45.2062 47.7063 46.7969 47.7063 48.7499C47.7063 50.7029 49.297 52.2937 51.25 52.2937C53.203 52.2937 54.7938 50.7029 54.7938 48.7499C54.7938 46.7969 53.2053 45.2062 51.25 45.2062Z" fill="black"/>
<path d="M63.0625 51.5625H56.7625C55.831 51.5625 55.075 50.8065 55.075 49.875C55.075 48.9435 55.831 48.1875 56.7625 48.1875H63.0625C63.373 48.1875 63.625 47.9355 63.625 47.625V42.369C63.625 40.7917 62.986 39.246 61.87 38.13C60.754 37.014 59.2083 36.375 57.631 36.375H56.4902C54.8365 36.375 53.284 35.7315 52.114 34.5615L47.0672 29.5148C45.706 28.1558 43.8228 27.375 41.8968 27.375H19.1875C17.6372 27.375 16.375 28.6372 16.375 30.1875V47.625C16.375 47.9355 16.627 48.1875 16.9375 48.1875H19.75C20.6815 48.1875 21.4375 48.9435 21.4375 49.875C21.4375 50.8065 20.6815 51.5625 19.75 51.5625H16.9375C14.7663 51.5625 13 49.7962 13 47.625V30.1875C13 26.7742 15.7743 24 19.1875 24H41.8968C44.752 24 47.434 25.1115 49.4523 27.1297L54.499 32.1765C55.0322 32.7075 55.7388 33 56.4902 33H57.631C60.133 33 62.4865 33.9742 64.255 35.745C66.0235 37.5157 67 39.867 67 42.369V47.625C67 49.7962 65.2337 51.5625 63.0625 51.5625Z" fill="black"/>
<path d="M45.7375 51.5625H31C30.0685 51.5625 29.3125 50.8065 29.3125 49.875C29.3125 48.9435 30.0685 48.1875 31 48.1875H45.7375C46.669 48.1875 47.425 48.9435 47.425 49.875C47.425 50.8065 46.669 51.5625 45.7375 51.5625Z" fill="black"/>
</svg>
