<svg width="80" height="80" viewBox="0 0 80 80" fill="none" xmlns="http://www.w3.org/2000/svg">
<circle cx="40" cy="40" r="40" fill="#E8E8E8"/>
<path fill-rule="evenodd" clip-rule="evenodd" d="M25.125 31.5625C26.057 31.5625 26.8125 32.318 26.8125 33.25V35.5C26.8125 36.4319 26.057 37.1875 25.125 37.1875C24.193 37.1875 23.4375 36.4319 23.4375 35.5V33.25C23.4375 32.318 24.193 31.5625 25.125 31.5625Z" fill="#F44336"/>
<path fill-rule="evenodd" clip-rule="evenodd" d="M30.75 33.8125C31.682 33.8125 32.4375 34.568 32.4375 35.5V51.25C32.4375 52.182 31.682 52.9375 30.75 52.9375H19.5C17.3254 52.9375 15.5625 51.1746 15.5625 49V40C15.5625 39.4357 15.8445 38.909 16.3139 38.596L23.0639 34.0959C23.3412 33.9111 23.6668 33.8125 24 33.8125H30.75Z" fill="#90A7B2"/>
<path fill-rule="evenodd" clip-rule="evenodd" d="M62.25 22.5625C65.6673 22.5625 68.4375 25.3327 68.4375 28.75V49C68.4375 51.1746 66.6746 52.9375 64.5 52.9375H33C30.8254 52.9375 29.0625 51.1746 29.0625 49V28.75C29.0625 25.3327 31.8327 22.5625 35.25 22.5625H62.25Z" fill="#E5E6E8"/>
<path fill-rule="evenodd" clip-rule="evenodd" d="M25.6875 33.8125V35.5V40C25.6875 43.4173 22.9173 46.1875 19.5 46.1875H17.25H15.5625V40C15.5625 39.4357 15.8445 38.909 16.3139 38.596L23.0639 34.0959C23.3412 33.9111 23.6668 33.8125 24 33.8125H25.6875Z" fill="#486472"/>
<path fill-rule="evenodd" clip-rule="evenodd" d="M56.625 49.5625C59.4208 49.5625 61.6875 51.8292 61.6875 54.625C61.6875 57.4208 59.4208 59.6875 56.625 59.6875C53.8292 59.6875 51.5625 57.4208 51.5625 54.625C51.5625 51.8292 53.8292 49.5625 56.625 49.5625Z" fill="#486472"/>
<path fill-rule="evenodd" clip-rule="evenodd" d="M27.375 49.5625C30.1709 49.5625 32.4375 51.8292 32.4375 54.625C32.4375 57.4208 30.1709 59.6875 27.375 59.6875C24.5791 59.6875 22.3125 57.4208 22.3125 54.625C22.3125 51.8292 24.5791 49.5625 27.375 49.5625Z" fill="#486472"/>
<path fill-rule="evenodd" clip-rule="evenodd" d="M68.4375 28.75C68.4375 25.3327 65.6673 22.5625 62.25 22.5625H35.25C31.8327 22.5625 29.0625 25.3327 29.0625 28.75V49C29.0625 51.1746 30.8254 52.9375 33 52.9375H64.5C66.6746 52.9375 68.4375 51.1746 68.4375 49V28.75ZM62.25 25.9375C63.8034 25.9375 65.0625 27.1967 65.0625 28.75V49C65.0625 49.3107 64.8107 49.5625 64.5 49.5625H33C32.6893 49.5625 32.4375 49.3107 32.4375 49V28.75C32.4375 27.1967 33.6967 25.9375 35.25 25.9375H62.25Z" fill="black"/>
<path fill-rule="evenodd" clip-rule="evenodd" d="M32.4375 35.5C32.4375 34.568 31.682 33.8125 30.75 33.8125H24C23.6668 33.8125 23.3412 33.9111 23.0639 34.0959L16.3139 38.596C15.8445 38.909 15.5625 39.4357 15.5625 40V49C15.5625 51.1746 17.3254 52.9375 19.5 52.9375H30.75C31.682 52.9375 32.4375 52.182 32.4375 51.25V35.5ZM29.0625 37.1875V49.5625H19.5C19.1893 49.5625 18.9375 49.3107 18.9375 49V40.9032L24.5109 37.1875H29.0625Z" fill="black"/>
<path fill-rule="evenodd" clip-rule="evenodd" d="M24 33.8125C23.068 33.8125 22.3125 34.568 22.3125 35.5V40C22.3125 41.5534 21.0533 42.8125 19.5 42.8125H17.25C16.318 42.8125 15.5625 43.568 15.5625 44.5C15.5625 45.4319 16.318 46.1875 17.25 46.1875H19.5C22.9173 46.1875 25.6875 43.4173 25.6875 40V35.5C25.6875 34.568 24.932 33.8125 24 33.8125Z" fill="black"/>
<path fill-rule="evenodd" clip-rule="evenodd" d="M56.625 52.9375C57.557 52.9375 58.3125 53.693 58.3125 54.625C58.3125 55.557 57.557 56.3125 56.625 56.3125C55.693 56.3125 54.9375 55.557 54.9375 54.625C54.9375 53.693 55.693 52.9375 56.625 52.9375ZM61.6875 54.625C61.6875 51.8292 59.4208 49.5625 56.625 49.5625C53.8292 49.5625 51.5625 51.8292 51.5625 54.625C51.5625 57.4208 53.8292 59.6875 56.625 59.6875C59.4208 59.6875 61.6875 57.4208 61.6875 54.625Z" fill="black"/>
<path fill-rule="evenodd" clip-rule="evenodd" d="M27.375 52.9375C28.307 52.9375 29.0625 53.693 29.0625 54.625C29.0625 55.557 28.307 56.3125 27.375 56.3125C26.443 56.3125 25.6875 55.557 25.6875 54.625C25.6875 53.693 26.443 52.9375 27.375 52.9375ZM32.4375 54.625C32.4375 51.8292 30.1709 49.5625 27.375 49.5625C24.5791 49.5625 22.3125 51.8292 22.3125 54.625C22.3125 57.4208 24.5791 59.6875 27.375 59.6875C30.1709 59.6875 32.4375 57.4208 32.4375 54.625Z" fill="black"/>
<path fill-rule="evenodd" clip-rule="evenodd" d="M25.125 31.5625C26.057 31.5625 26.8125 32.318 26.8125 33.25V35.5C26.8125 36.4319 26.057 37.1875 25.125 37.1875C24.193 37.1875 23.4375 36.4319 23.4375 35.5V33.25C23.4375 32.318 24.193 31.5625 25.125 31.5625Z" fill="black"/>
</svg>
