<svg width="80" height="82" viewBox="0 0 80 82" fill="none" xmlns="http://www.w3.org/2000/svg">
<circle cx="40" cy="40" r="40" fill="#E8E8E8"/>
<g clip-path="url(#clip0)">
<path d="M30.172 19.4375H25.9375C23.4513 19.4375 21.4375 21.4513 21.4375 23.9375V58.8125C21.4375 61.2988 23.4513 63.3125 25.9375 63.3125H54.0625C56.5488 63.3125 58.5625 61.2988 58.5625 58.8125V23.9375C58.5625 21.4513 56.5488 19.4375 54.0625 19.4375H49.828H30.172Z" fill="#ECEFF1"/>
<path d="M49.5625 17.1875V21.6875C49.5625 22.9295 48.5545 23.9375 47.3125 23.9375H32.6875C31.4455 23.9375 30.4375 22.9295 30.4375 21.6875V17.1875H35.5C35.5 14.7125 37.525 12.6875 40 12.6875C42.475 12.6875 44.5 14.7125 44.5 17.1875H49.5625Z" fill="#607D8B"/>
<path d="M54.0625 65H25.9375C22.5243 65 19.75 62.2257 19.75 58.8125V23.9375C19.75 20.5243 22.5243 17.75 25.9375 17.75H30.1742C31.1058 17.75 31.8618 18.506 31.8618 19.4375C31.8618 20.369 31.1058 21.125 30.1742 21.125H25.9375C24.3872 21.125 23.125 22.3872 23.125 23.9375V58.8125C23.125 60.3628 24.3872 61.625 25.9375 61.625H54.0625C55.6128 61.625 56.875 60.3628 56.875 58.8125V23.9375C56.875 22.3872 55.6128 21.125 54.0625 21.125H49.8258C48.8943 21.125 48.1382 20.369 48.1382 19.4375C48.1382 18.506 48.8943 17.75 49.8258 17.75H54.0625C57.4757 17.75 60.25 20.5243 60.25 23.9375V58.8125C60.25 62.2257 57.4757 65 54.0625 65Z" fill="black"/>
<path d="M47.3125 25.625H32.6875C30.5163 25.625 28.75 23.8588 28.75 21.6875V17.1875C28.75 16.256 29.506 15.5 30.4375 15.5H34.0465C34.7845 12.9058 37.1718 11 40 11C42.8283 11 45.2155 12.9058 45.9535 15.5H49.5625C50.494 15.5 51.25 16.256 51.25 17.1875V21.6875C51.25 23.8588 49.4838 25.625 47.3125 25.625ZM32.125 18.875V21.6875C32.125 21.998 32.377 22.25 32.6875 22.25H47.3125C47.623 22.25 47.875 21.998 47.875 21.6875V18.875H44.5C43.5685 18.875 42.8125 18.119 42.8125 17.1875C42.8125 15.6373 41.5503 14.375 40 14.375C38.4498 14.375 37.1875 15.6373 37.1875 17.1875C37.1875 18.119 36.4315 18.875 35.5 18.875H32.125Z" fill="black"/>
<path d="M47.2839 43.3789H32.7161C31.7882 43.3789 31.0352 42.4812 31.0352 41.375C31.0352 40.2688 31.7882 39.3711 32.7161 39.3711H47.2839C48.2118 39.3711 48.9648 40.2688 48.9648 41.375C48.9648 42.4812 48.2118 43.3789 47.2839 43.3789Z" fill="black"/>
<path d="M47.3795 51.0781H32.726C31.7926 51.0781 31.0352 50.1804 31.0352 49.0742C31.0352 47.9681 31.7926 47.0703 32.726 47.0703H47.3795C48.3128 47.0703 49.0703 47.9681 49.0703 49.0742C49.0703 50.1804 48.3128 51.0781 47.3795 51.0781Z" fill="black"/>
<path d="M47.3795 35.5742H32.726C31.7926 35.5742 31.0352 34.6765 31.0352 33.5703C31.0352 32.4642 31.7926 31.5664 32.726 31.5664H47.3795C48.3128 31.5664 49.0703 32.4642 49.0703 33.5703C49.0703 34.6765 48.3128 35.5742 47.3795 35.5742Z" fill="black"/>
</g>
<defs>
<clipPath id="clip0">
<rect width="54" height="54" fill="white" transform="translate(13 11)"/>
</clipPath>
</defs>
</svg>
