<svg width="80" height="80" viewBox="0 0 80 80" fill="none" xmlns="http://www.w3.org/2000/svg">
<circle cx="40" cy="40" r="40" fill="#E8E8E8"/>
<g clip-path="url(#clip0)">
<path d="M45.0625 36.625V49.5625C45.0625 52.0375 43.0375 54.0625 40.5625 54.0625H19.1875C16.7125 54.0625 14.6875 52.0375 14.6875 49.5625V36.625C14.6875 29.3125 19.8625 23.1925 26.7475 21.775C26.77 21.775 26.7925 21.775 26.815 21.7525C27.805 21.55 28.8175 21.4375 29.875 21.4375C30.9325 21.4375 31.945 21.55 32.935 21.7525C32.9575 21.7525 32.98 21.7525 33.0025 21.775C39.8875 23.1925 45.0625 29.3125 45.0625 36.625Z" fill="#CFD8DC"/>
<path d="M29.875 42.8125C32.0496 42.8125 33.8125 41.0496 33.8125 38.875C33.8125 36.7004 32.0496 34.9375 29.875 34.9375C27.7004 34.9375 25.9375 36.7004 25.9375 38.875C25.9375 41.0496 27.7004 42.8125 29.875 42.8125Z" fill="#90A4AE"/>
<path d="M52.375 40.5625C59.5202 40.5625 65.3125 34.7702 65.3125 27.625C65.3125 20.4798 59.5202 14.6875 52.375 14.6875C45.2298 14.6875 39.4375 20.4798 39.4375 27.625C39.4375 34.7702 45.2298 40.5625 52.375 40.5625Z" fill="#FFC107"/>
<path d="M52.375 42.25C44.311 42.25 37.75 35.689 37.75 27.625C37.75 19.561 44.311 13 52.375 13C60.439 13 67 19.561 67 27.625C67 35.689 60.439 42.25 52.375 42.25ZM52.375 16.375C46.1718 16.375 41.125 21.4218 41.125 27.625C41.125 33.8283 46.1718 38.875 52.375 38.875C58.5783 38.875 63.625 33.8283 63.625 27.625C63.625 21.4218 58.5783 16.375 52.375 16.375Z" fill="black"/>
<path d="M56.3125 34.375C55.8805 34.375 55.4485 34.2107 55.12 33.88L51.1825 29.9425C50.8652 29.6275 50.6875 29.1978 50.6875 28.75V21.4375C50.6875 20.506 51.4435 19.75 52.375 19.75C53.3065 19.75 54.0625 20.506 54.0625 21.4375V28.0503L57.505 31.4928C58.1643 32.152 58.1643 33.2207 57.505 33.88C57.1765 34.2107 56.7445 34.375 56.3125 34.375Z" fill="black"/>
<path d="M45.0625 55.75H19.1875C15.7743 55.75 13 52.9757 13 49.5625V36.625C13 27.319 20.569 19.75 29.875 19.75C31.0855 19.75 32.2285 19.8737 33.3693 20.128C34.2783 20.3305 34.852 21.2328 34.6495 22.1418C34.4447 23.053 33.529 23.62 32.6357 23.422C31.738 23.2218 30.8358 23.125 29.875 23.125C22.4298 23.125 16.375 29.1798 16.375 36.625V49.5625C16.375 51.1127 17.6372 52.375 19.1875 52.375H43.375V46.5025C43.375 45.571 44.131 44.815 45.0625 44.815C45.994 44.815 46.75 45.571 46.75 46.5025V54.0625C46.75 54.994 45.994 55.75 45.0625 55.75Z" fill="black"/>
<path d="M32.6875 67C31.756 67 31 66.244 31 65.3125V64.1875C31 62.0162 32.7663 60.25 34.9375 60.25H55.1875C56.4295 60.25 57.4375 59.2397 57.4375 58C57.4375 56.7602 56.4295 55.75 55.1875 55.75H44.5C43.5685 55.75 42.8125 54.994 42.8125 54.0625C42.8125 53.131 43.5685 52.375 44.5 52.375H55.1875C58.2903 52.375 60.8125 54.8995 60.8125 58C60.8125 61.1005 58.2903 63.625 55.1875 63.625H34.9375C34.627 63.625 34.375 63.877 34.375 64.1875V65.3125C34.375 66.244 33.619 67 32.6875 67Z" fill="black"/>
<path d="M29.875 44.5C26.7723 44.5 24.25 41.9755 24.25 38.875C24.25 35.7745 26.7723 33.25 29.875 33.25C32.9778 33.25 35.5 35.7745 35.5 38.875C35.5 41.9755 32.9778 44.5 29.875 44.5ZM29.875 36.625C28.633 36.625 27.625 37.6352 27.625 38.875C27.625 40.1147 28.633 41.125 29.875 41.125C31.117 41.125 32.125 40.1147 32.125 38.875C32.125 37.6352 31.117 36.625 29.875 36.625Z" fill="black"/>
</g>
<defs>
<clipPath id="clip0">
<rect width="54" height="54" fill="white" transform="translate(13 13)"/>
</clipPath>
</defs>
</svg>
