<svg width="80" height="80" viewBox="0 0 80 80" fill="none" xmlns="http://www.w3.org/2000/svg">
<circle cx="40" cy="40" r="40" fill="#E8E8E8"/>
<g clip-path="url(#clip0)">
<path d="M44 30.6129C44 24.2616 49.1487 19 55.5 19C61.8513 19 67 24.1487 67 30.5V55.5C67 61.8513 61.8513 67 55.5 67C49.1487 67 44 61.8513 44 55.5V52.2903V30.6129Z" fill="#CDCDCD"/>
<path d="M23.4375 41.125V67H38.0625V38.875H44.8125C48.5408 38.875 51.5625 35.8533 51.5625 32.125H38.0625H23.4375C19.7093 32.125 16.6875 35.1468 16.6875 38.875V45.625C16.6875 49.3533 19.7093 52.375 23.4375 52.375V41.125Z" fill="#00BCD4"/>
<path d="M35.8125 23.2061V26.5001C35.8125 29.2968 33.5467 31.5625 30.75 31.5625C27.9532 31.5625 25.6875 29.2968 25.6875 26.5001V23.2061H35.8125Z" fill="#FFCC80"/>
<path d="M25.6875 23.206V21.4375C25.6875 18.9513 27.7012 16.9375 30.1875 16.9375H31.3125C33.7987 16.9375 35.8125 18.9513 35.8125 21.4375V23.206H25.6875Z" fill="#00BCD4"/>
<path d="M38.0625 67C37.131 67 36.375 66.244 36.375 65.3125V38.875C36.375 37.9435 37.131 37.1875 38.0625 37.1875H44.8125C47.013 37.1875 48.8895 35.7768 49.5848 33.8125H23.4375C20.6475 33.8125 18.375 36.0828 18.375 38.875V45.625C18.375 48.4173 20.6475 50.6875 23.4375 50.6875C24.369 50.6875 25.125 51.4435 25.125 52.375C25.125 53.3065 24.369 54.0625 23.4375 54.0625C18.7868 54.0625 15 50.278 15 45.625V38.875C15 34.222 18.7868 30.4375 23.4375 30.4375H51.5625C52.494 30.4375 53.25 31.1935 53.25 32.125C53.25 36.778 49.4633 40.5625 44.8125 40.5625H39.75V65.3125C39.75 66.244 38.994 67 38.0625 67Z" fill="black"/>
<path d="M23.4375 67C22.506 67 21.75 66.244 21.75 65.3125V41.125C21.75 40.1935 22.506 39.4375 23.4375 39.4375C24.369 39.4375 25.125 40.1935 25.125 41.125V65.3125C25.125 66.244 24.369 67 23.4375 67Z" fill="black"/>
<path d="M30.75 67C29.8185 67 29.0625 66.244 29.0625 65.3125V52.375C29.0625 51.4435 29.8185 50.6875 30.75 50.6875C31.6815 50.6875 32.4375 51.4435 32.4375 52.375V65.3125C32.4375 66.244 31.6815 67 30.75 67Z" fill="black"/>
<path d="M38.0625 24.25H23.4375C22.506 24.25 21.75 23.494 21.75 22.5625C21.75 21.631 22.506 20.875 23.4375 20.875H38.0625C38.994 20.875 39.75 21.631 39.75 22.5625C39.75 23.494 38.994 24.25 38.0625 24.25Z" fill="black"/>
<path d="M30.75 33.25C27.0285 33.25 24 30.2216 24 26.5001V23.2061C24 22.2746 24.756 21.5186 25.6875 21.5186C26.619 21.5186 27.375 22.2746 27.375 23.2061V26.5001C27.375 28.3608 28.8892 29.8751 30.75 29.8751C32.6107 29.8751 34.125 28.3608 34.125 26.5001V23.2061C34.125 22.2746 34.881 21.5186 35.8125 21.5186C36.744 21.5186 37.5 22.2746 37.5 23.2061V26.5001C37.5 30.2216 34.4715 33.25 30.75 33.25Z" fill="black"/>
<path d="M35.8125 24.8935C34.881 24.8935 34.125 24.1375 34.125 23.206V21.4375C34.125 19.8873 32.8627 18.625 31.3125 18.625H30.1875C28.6372 18.625 27.375 19.8873 27.375 21.4375V23.206C27.375 24.1375 26.619 24.8935 25.6875 24.8935C24.756 24.8935 24 24.1375 24 23.206V21.4375C24 18.0265 26.7742 15.25 30.1875 15.25H31.3125C34.7257 15.25 37.5 18.0265 37.5 21.4375V23.206C37.5 24.1375 36.744 24.8935 35.8125 24.8935Z" fill="black"/>
<path d="M30.75 20.3125C29.8185 20.3125 29.0625 19.5565 29.0625 18.625V14.6875C29.0625 13.756 29.8185 13 30.75 13C31.6815 13 32.4375 13.756 32.4375 14.6875V18.625C32.4375 19.5565 31.6815 20.3125 30.75 20.3125Z" fill="black"/>
</g>
<defs>
<clipPath id="clip0">
<rect width="54" height="54" fill="white" transform="translate(15 13)"/>
</clipPath>
</defs>
</svg>
