<svg width="42" height="42" viewBox="0 0 42 42" fill="none" xmlns="http://www.w3.org/2000/svg">
<g clip-path="url(#clip0)">
<path d="M41.9589 12.3481C41.8605 10.1165 41.4996 8.58227 40.9826 7.25285C40.4493 5.8417 39.6288 4.5783 38.5539 3.52803C37.5036 2.46142 36.2319 1.63261 34.8371 1.10764C33.5 0.590676 31.9738 0.229796 29.7422 0.131404C27.4939 0.0246783 26.7801 0 21.0778 0C15.3756 0 14.6618 0.0246783 12.4219 0.123071C10.1902 0.221464 8.65603 0.582664 7.32693 1.09931C5.91546 1.63261 4.65206 2.45309 3.60179 3.52803C2.53518 4.5783 1.70669 5.85004 1.1814 7.24484C0.664437 8.58227 0.303557 10.1082 0.205165 12.3398C0.0984392 14.5881 0.073761 15.3018 0.073761 21.0041C0.073761 26.7064 0.0984392 27.4201 0.196832 29.6601C0.295224 31.8917 0.656424 33.4259 1.17339 34.7554C1.70669 36.1665 2.53518 37.4299 3.60179 38.4802C4.65206 39.5468 5.92379 40.3756 7.31859 40.9006C8.65603 41.4175 10.1819 41.7784 12.4139 41.8768C14.6535 41.9755 15.3676 41.9999 21.0698 41.9999C26.7721 41.9999 27.4859 41.9755 29.7258 41.8768C31.9574 41.7784 33.4917 41.4175 34.8208 40.9006C37.6434 39.8093 39.875 37.5777 40.9663 34.7554C41.4829 33.4179 41.8441 31.8917 41.9425 29.6601C42.0409 27.4201 42.0656 26.7064 42.0656 21.0041C42.0656 15.3018 42.0573 14.5881 41.9589 12.3481ZM38.1767 29.496C38.0863 31.5472 37.7418 32.6548 37.4546 33.3932C36.7489 35.223 35.2967 36.6751 33.467 37.3809C32.7285 37.668 31.6129 38.0126 29.5697 38.1026C27.3545 38.2013 26.6901 38.2257 21.0862 38.2257C15.4823 38.2257 14.8096 38.2013 12.6023 38.1026C10.5511 38.0126 9.44349 37.668 8.70506 37.3809C7.79453 37.0443 6.96573 36.511 6.293 35.8136C5.5956 35.1326 5.0623 34.3121 4.72577 33.4016C4.43861 32.6632 4.09407 31.5472 4.00401 29.5043C3.9053 27.2891 3.88094 26.6243 3.88094 21.0205C3.88094 15.4166 3.9053 14.7438 4.00401 12.5369C4.09407 10.4857 4.43861 9.37807 4.72577 8.63964C5.0623 7.72879 5.5956 6.9003 6.30134 6.22726C6.98207 5.52986 7.80254 4.99655 8.7134 4.66035C9.45182 4.37318 10.5678 4.02865 12.6106 3.93827C14.8259 3.83988 15.4906 3.8152 21.0942 3.8152C26.7064 3.8152 27.3708 3.83988 29.5781 3.93827C31.6292 4.02865 32.7369 4.37318 33.4753 4.66035C34.3858 4.99655 35.2146 5.52986 35.8874 6.22726C36.5848 6.90832 37.1181 7.72879 37.4546 8.63964C37.7418 9.37807 38.0863 10.4937 38.1767 12.5369C38.2751 14.7522 38.2997 15.4166 38.2997 21.0205C38.2997 26.6243 38.2751 27.2807 38.1767 29.496Z" fill="#F2F2F2"/>
<path d="M21.0779 10.2148C15.1214 10.2148 10.2887 15.0473 10.2887 21.0041C10.2887 26.9608 15.1214 31.7933 21.0779 31.7933C27.0346 31.7933 31.8671 26.9608 31.8671 21.0041C31.8671 15.0473 27.0346 10.2148 21.0779 10.2148ZM21.0779 28.0028C17.2136 28.0028 14.0792 24.8686 14.0792 21.0041C14.0792 17.1395 17.2136 14.0054 21.0779 14.0054C24.9424 14.0054 28.0766 17.1395 28.0766 21.0041C28.0766 24.8686 24.9424 28.0028 21.0779 28.0028Z" fill="#F2F2F2"/>
<path d="M34.8128 9.78832C34.8128 11.1793 33.6849 12.3071 32.2937 12.3071C30.9027 12.3071 29.7749 11.1793 29.7749 9.78832C29.7749 8.39704 30.9027 7.26953 32.2937 7.26953C33.6849 7.26953 34.8128 8.39704 34.8128 9.78832Z" fill="#F2F2F2"/>
</g>
<defs>
<clipPath id="clip0">
<rect width="42" height="42" fill="white"/>
</clipPath>
</defs>
</svg>
