<svg width="48" height="49" viewBox="0 0 48 49" fill="none" xmlns="http://www.w3.org/2000/svg">
<g clip-path="url(#clip0)" filter="url(#filter0_d)">
<path d="M37.9726 8.23208C37.907 6.74433 37.6664 5.72152 37.3218 4.83523C36.9662 3.89447 36.4193 3.0522 35.7026 2.35202C35.0024 1.64095 34.1546 1.08841 33.2248 0.738426C32.3333 0.393784 31.3159 0.153198 29.8281 0.0876025C28.3293 0.0164522 27.8534 0 24.0519 0C20.2504 0 19.7746 0.0164522 18.2813 0.0820473C16.7935 0.147642 15.7707 0.388443 14.8846 0.73287C13.9437 1.08841 13.1014 1.63539 12.4012 2.35202C11.6901 3.0522 11.1378 3.90002 10.7876 4.82989C10.443 5.72152 10.2024 6.73877 10.1368 8.22652C10.0656 9.72538 10.0492 10.2012 10.0492 14.0027C10.0492 17.8043 10.0656 18.2801 10.1312 19.7734C10.1968 21.2611 10.4376 22.284 10.7823 23.1702C11.1378 24.111 11.6901 24.9533 12.4012 25.6535C13.1014 26.3645 13.9492 26.9171 14.8791 27.267C15.7707 27.6117 16.788 27.8523 18.2759 27.9179C19.769 27.9837 20.2451 27.9999 24.0466 27.9999C27.8481 27.9999 28.3239 27.9837 29.8172 27.9179C31.305 27.8523 32.3278 27.6117 33.2139 27.267C35.0956 26.5395 36.5833 25.0518 37.3109 23.1702C37.6553 22.2786 37.8961 21.2611 37.9617 19.7734C38.0273 18.2801 38.0437 17.8043 38.0437 14.0027C38.0437 10.2012 38.0382 9.72538 37.9726 8.23208ZM35.4511 19.664C35.3909 21.0315 35.1612 21.7699 34.9698 22.2622C34.4993 23.482 33.5311 24.4501 32.3113 24.9206C31.8191 25.112 31.0753 25.3417 29.7132 25.4018C28.2363 25.4676 27.7934 25.4838 24.0575 25.4838C20.3215 25.4838 19.8731 25.4676 18.4016 25.4018C17.0341 25.3417 16.2957 25.112 15.8034 24.9206C15.1964 24.6962 14.6438 24.3407 14.1954 23.8758C13.7304 23.4217 13.3749 22.8747 13.1505 22.2677C12.9591 21.7754 12.7294 21.0315 12.6694 19.6696C12.6036 18.1927 12.5873 17.7496 12.5873 14.0136C12.5873 10.2777 12.6036 9.82922 12.6694 8.35793C12.7294 6.99047 12.9591 6.25205 13.1505 5.75976C13.3749 5.15253 13.7304 4.6002 14.2009 4.15151C14.6547 3.68657 15.2017 3.33103 15.809 3.1069C16.3012 2.91546 17.0452 2.68577 18.4071 2.62551C19.884 2.55992 20.3271 2.54347 24.0628 2.54347C27.8043 2.54347 28.2472 2.55992 29.7187 2.62551C31.0862 2.68577 31.8246 2.91546 32.3169 3.1069C32.9239 3.33103 33.4764 3.68657 33.9249 4.15151C34.3899 4.60554 34.7454 5.15253 34.9698 5.75976C35.1612 6.25205 35.3909 6.99581 35.4511 8.35793C35.5167 9.83478 35.5332 10.2777 35.5332 14.0136C35.5332 17.7496 35.5167 18.1871 35.4511 19.664Z" fill="white"/>
<path d="M24.0519 6.80991C20.081 6.80991 16.8591 10.0315 16.8591 14.0027C16.8591 17.9739 20.081 21.1955 24.0519 21.1955C28.0231 21.1955 31.2448 17.9739 31.2448 14.0027C31.2448 10.0315 28.0231 6.80991 24.0519 6.80991ZM24.0519 18.6685C21.4758 18.6685 19.3861 16.5791 19.3861 14.0027C19.3861 11.4263 21.4758 9.33692 24.0519 9.33692C26.6283 9.33692 28.7177 11.4263 28.7177 14.0027C28.7177 16.5791 26.6283 18.6685 24.0519 18.6685Z" fill="white"/>
<path d="M33.2085 6.52554C33.2085 7.45284 32.4566 8.20473 31.5291 8.20473C30.6017 8.20473 29.8499 7.45284 29.8499 6.52554C29.8499 5.59802 30.6017 4.84634 31.5291 4.84634C32.4566 4.84634 33.2085 5.59802 33.2085 6.52554Z" fill="white"/>
</g>
<defs>
<filter id="filter0_d" x="0" y="0" width="48" height="49" filterUnits="userSpaceOnUse" color-interpolation-filters="sRGB">
<feFlood flood-opacity="0" result="BackgroundImageFix"/>
<feColorMatrix in="SourceAlpha" type="matrix" values="0 0 0 0 0 0 0 0 0 0 0 0 0 0 0 0 0 0 127 0"/>
<feOffset dy="11"/>
<feGaussianBlur stdDeviation="5"/>
<feColorMatrix type="matrix" values="0 0 0 0 0 0 0 0 0 0 0 0 0 0 0 0 0 0 0.25 0"/>
<feBlend mode="normal" in2="BackgroundImageFix" result="effect1_dropShadow"/>
<feBlend mode="normal" in="SourceGraphic" in2="effect1_dropShadow" result="shape"/>
</filter>
<clipPath id="clip0">
<rect width="28" height="28" fill="white" transform="translate(10)"/>
</clipPath>
</defs>
</svg>
