<svg width="18" height="18" viewBox="0 0 18 18" fill="none" xmlns="http://www.w3.org/2000/svg">
<g clip-path="url(#clip0)">
<path d="M14.5111 11.1701L9.43044 17.7873L9 0C12.8354 0 15.9447 3.10922 15.9447 6.94467C15.9447 8.53464 15.4099 9.99949 14.5111 11.1701Z" fill="#CA3D44"/>
<path d="M14.8581 6.94467C14.8581 8.53464 14.4126 9.99949 13.6636 11.1701L9.43041 17.7873C9.3311 17.9164 9.17547 18 8.99997 18C8.82446 18 8.66883 17.9164 8.56952 17.7873L3.48889 11.1701C2.59001 9.99949 2.0553 8.53464 2.0553 6.94467C2.0553 3.10922 5.16452 0 8.99997 0C12.2353 0 14.8581 3.10922 14.8581 6.94467Z" fill="#FF3A33"/>
<path d="M9 2.05518V11.8338C11.7003 11.8338 13.8893 9.6448 13.8893 6.94451C13.8893 4.24422 11.7003 2.05518 9 2.05518Z" fill="#D6F9FA"/>
<path d="M8.99993 2.05518C6.29964 2.05518 4.1106 4.24422 4.1106 6.94451C4.1106 9.6448 6.29964 11.8338 8.99993 11.8338C11.1002 11.8338 12.8027 9.6448 12.8027 6.94451C12.8027 4.24422 11.1002 2.05518 8.99993 2.05518Z" fill="white"/>
</g>
<defs>
<clipPath id="clip0">
<rect width="18" height="18" fill="white"/>
</clipPath>
</defs>
</svg>
