<svg width="238" height="52" viewBox="0 0 238 52" fill="none" xmlns="http://www.w3.org/2000/svg">
<path d="M20.6128 49.9999C18.3328 49.9999 16.4135 49.5026 14.8548 48.508C13.296 47.4908 12.1212 46.1232 11.3302 44.4052C10.5625 42.6873 10.1786 40.7432 10.1786 38.5732C10.1786 36.4031 10.5625 34.4478 11.3302 32.7072C12.1212 30.9666 13.296 29.5991 14.8548 28.6044C16.4135 27.5872 18.3328 27.0786 20.6128 27.0786C22.8927 27.0786 24.812 27.5872 26.3708 28.6044C27.9528 29.5991 29.1393 30.9666 29.9303 32.7072C30.7212 34.4478 31.1167 36.4031 31.1167 38.5732C31.1167 40.7432 30.7212 42.6873 29.9303 44.4052C29.1393 46.1232 27.9528 47.4908 26.3708 48.508C24.812 49.5026 22.8927 49.9999 20.6128 49.9999ZM20.4732 48.2028C21.9621 48.2028 23.2417 47.7846 24.3118 46.9483C25.4053 46.0893 26.2428 44.9364 26.8244 43.4897C27.406 42.043 27.6968 40.4381 27.6968 38.6749C27.6968 37.183 27.4758 35.6911 27.0338 34.1991C26.5918 32.6846 25.8589 31.4074 24.8353 30.3676C23.8117 29.3278 22.4739 28.8079 20.8222 28.8079C19.3332 28.8079 18.042 29.26 16.9486 30.1642C15.8552 31.0458 15.0176 32.2551 14.436 33.7922C13.8777 35.3068 13.5985 36.9908 13.5985 38.8444C13.5985 41.557 14.1917 43.7949 15.3782 45.5581C16.588 47.3212 18.2863 48.2028 20.4732 48.2028Z" fill="#696969"/>
<path d="M36.9682 42.4914L37.3521 42.0167C37.8406 41.4063 38.178 40.7508 38.3641 40.0501C38.5502 39.3493 38.6433 38.4225 38.6433 37.2697V31.6072C38.6433 30.7482 38.5735 30.183 38.4339 29.9118C38.3176 29.6405 38.05 29.5049 37.6313 29.5049H37.3172C36.596 29.5049 36.0376 29.5727 35.6421 29.7083C35.2699 29.844 34.9675 30.0813 34.7348 30.4204C34.5254 30.7595 34.3277 31.2907 34.1416 32.014L33.9322 32.6244L32.9551 32.3531V27.3009L33.4436 26.894L33.9322 27.3009C34.2114 27.5044 34.6185 27.6513 35.1536 27.7417C35.6887 27.8321 36.3982 27.8774 37.2823 27.8774H42.9007C43.7848 27.8774 44.4827 27.8321 44.9945 27.7417C45.5063 27.6513 45.9018 27.5044 46.181 27.3009L46.6696 26.894L47.193 27.3009V32.3531L46.181 32.6244L46.0414 32.014C45.832 31.2907 45.611 30.7595 45.3784 30.4204C45.169 30.0813 44.8782 29.844 44.506 29.7083C44.1337 29.5727 43.5986 29.5049 42.9007 29.5049H42.4819C42.0864 29.5049 41.8189 29.6405 41.6793 29.9118C41.563 30.183 41.5048 30.7482 41.5048 31.6072V39.2363C41.5048 40.0953 41.6212 40.6943 41.8538 41.0334C42.0864 41.3498 42.575 41.6098 43.3195 41.8132L44.0523 42.0167L43.6684 42.9661H37.3521L36.9682 42.4914ZM64.7239 47.8487C64.3051 46.0629 63.7933 44.7971 63.1884 44.0511C62.5835 43.3278 61.653 42.9661 60.3967 42.9661H53.3126C52.4518 42.9661 51.7655 43.1356 51.2537 43.4747C50.7419 43.8138 50.3231 44.3111 49.9974 44.9666C49.6717 45.6448 49.3343 46.6055 48.9854 47.8487L48.776 48.4591L47.7989 48.0861V41.7793C49.1017 41.6437 50.0788 41.2142 50.7302 40.4909C51.3816 39.7675 51.8237 38.852 52.0563 37.7444C52.3122 36.6141 52.5565 34.9301 52.7891 32.6922L52.9636 31.1664C53.0334 30.8273 53.0683 30.5447 53.0683 30.3187C53.0683 29.8214 52.9171 29.4823 52.6147 29.3015C52.3355 29.1206 51.8004 28.9624 51.0094 28.8268L50.3115 28.6233L50.6604 27.7078H64.3051L64.689 28.1486L64.3051 28.6233C63.8166 29.2336 63.4792 29.8892 63.2931 30.5899C63.1303 31.2681 63.0488 32.2062 63.0488 33.4042V39.9822C63.0488 40.57 63.3048 41.0221 63.8166 41.3385C64.3517 41.6324 65.038 41.7793 65.8755 41.7793V48.12L64.8984 48.493L64.7239 47.8487ZM58.3029 41.3724C59.0706 41.3724 59.5708 41.2368 59.8034 40.9656C60.0361 40.6943 60.1524 40.1179 60.1524 39.2363V31.5054C60.1524 30.6464 60.0361 30.0813 59.8034 29.8101C59.5708 29.5388 59.0706 29.4032 58.3029 29.4032H57.1164C56.5115 29.4032 56.0578 29.4823 55.7554 29.6405C55.4762 29.7762 55.3134 30.07 55.2668 30.5221C54.9876 32.8956 54.7201 34.7718 54.4642 36.1507C54.2083 37.507 53.8709 38.626 53.4522 39.5075C53.0334 40.3891 52.4867 41.0108 51.812 41.3724H58.3029ZM75.436 43.4069C73.9704 43.4069 72.6908 43.0791 71.5974 42.4236C70.5039 41.768 69.6548 40.8525 69.0499 39.6771C68.445 38.479 68.1426 37.1001 68.1426 35.5404C68.1426 33.9128 68.4799 32.4774 69.1546 31.2342C69.8293 29.9909 70.7831 29.0302 72.0161 28.3521C73.2724 27.6739 74.7148 27.3348 76.3434 27.3348C78.0649 27.3348 79.391 27.7756 80.3216 28.6572C81.2755 29.5388 81.7524 30.6012 81.7524 31.8445C81.7524 32.7035 81.5081 33.5286 81.0196 34.3197C80.5543 35.1109 79.8563 35.7551 78.9257 36.2524C78.0184 36.7498 76.9482 36.9984 75.7152 36.9984C75.0173 36.9984 74.2612 36.8854 73.4469 36.6593C72.6326 36.4107 72.2255 36.049 72.2255 35.5743C72.2255 35.3935 72.272 35.2352 72.3651 35.0996C72.4582 34.964 72.5629 34.8962 72.6792 34.8962C72.749 34.8962 72.9584 34.964 73.3073 35.0996C73.6796 35.2126 74.1565 35.2691 74.7381 35.2691C76.0177 35.2691 77.0064 34.9301 77.7043 34.2519C78.4023 33.5738 78.7512 32.76 78.7512 31.8106C78.7512 30.9968 78.4721 30.2961 77.9137 29.7083C77.3786 29.1206 76.6574 28.8268 75.7501 28.8268C74.3775 28.8268 73.3073 29.4145 72.5396 30.5899C71.7951 31.7428 71.4229 33.3929 71.4229 35.5404C71.4229 37.3714 71.8184 38.8068 72.6094 39.8466C73.4236 40.8638 74.5869 41.3724 76.0991 41.3724C77.9602 41.3724 79.4957 40.7847 80.7055 39.6093C80.7753 39.5415 80.8683 39.5075 80.9846 39.5075C81.1708 39.5075 81.3569 39.598 81.543 39.7788C81.7524 39.9596 81.8571 40.1518 81.8571 40.3552C81.8571 40.423 81.8338 40.4909 81.7873 40.5587C81.7408 40.6039 81.7175 40.6378 81.7175 40.6604C80.9265 41.5646 79.9843 42.254 78.8908 42.7287C77.8207 43.1808 76.6691 43.4069 75.436 43.4069ZM85.8884 43.4069C85.0509 43.4069 84.3762 43.1582 83.8644 42.6609C83.3523 42.141 83.0964 41.4629 83.0964 40.6265C83.0964 40.0388 83.236 39.5754 83.5154 39.2363C83.7946 38.8972 84.1668 38.7277 84.6321 38.7277C85.0509 38.7277 85.2952 39.0441 85.3649 39.6771C85.4115 39.9935 85.5162 40.2761 85.679 40.5248C85.8651 40.7508 86.1327 40.8638 86.4816 40.8638C88.2265 40.8638 89.3548 37.6313 89.8666 31.1664L89.9015 30.5899C89.9015 29.9796 89.762 29.5614 89.4828 29.3354C89.2036 29.1093 88.6453 28.9398 87.8077 28.8268L87.1447 28.6233L87.4937 27.7078H100.091L100.51 28.1486L100.091 28.6572C99.6029 29.2902 99.2539 29.957 99.0445 30.6577C98.8584 31.3585 98.7654 32.274 98.7654 33.4042V39.4397C98.7654 40.2309 98.8933 40.7847 99.1492 41.1012C99.4051 41.4177 99.8821 41.6776 100.58 41.8811L101.173 42.0167L100.859 42.9661H93.7402L93.3912 42.0167L94.0543 41.8132C94.7987 41.6098 95.2989 41.3385 95.5549 40.9995C95.8108 40.6604 95.9387 40.0501 95.9387 39.1685V31.4715C95.9387 30.5899 95.8108 30.0135 95.5549 29.7423C95.3222 29.471 94.822 29.3354 94.0543 29.3354H93.4959C92.8911 29.3354 92.4374 29.4145 92.135 29.5727C91.8558 29.7083 91.7046 30.0022 91.6813 30.4543C91.3788 33.9807 90.9252 36.6932 90.3203 38.592C89.7387 40.4909 89.0757 41.768 88.3312 42.4236C87.61 43.0791 86.7957 43.4069 85.8884 43.4069ZM104.236 42.0167L104.864 41.8132C105.608 41.6098 106.097 41.3498 106.33 41.0334C106.585 40.6943 106.713 40.0953 106.713 39.2363V31.4376C106.713 30.5786 106.585 29.9796 106.33 29.6405C106.097 29.3015 105.608 29.0302 104.864 28.8268L104.236 28.6233L104.55 27.7078H110.831L111.215 28.1147L110.831 28.6233C110.366 29.2789 110.029 29.957 109.819 30.6577C109.633 31.3585 109.54 32.274 109.54 33.4042V39.4397C109.54 40.2535 109.656 40.8073 109.889 41.1012C110.122 41.395 110.599 41.655 111.32 41.8811L111.948 42.0506L111.634 42.9661H104.55L104.236 42.0167ZM118.404 43.4069C117.543 43.4069 116.822 43.1808 116.24 42.7287C115.682 42.2766 115.112 41.5759 114.53 40.6265L112.332 37.0662C112.169 36.795 111.971 36.5802 111.739 36.422C111.506 36.2637 111.262 36.1394 111.006 36.049C110.773 35.936 110.622 35.8569 110.552 35.8117C110.459 35.7664 110.412 35.6421 110.412 35.4387C110.412 35.0318 110.587 34.8283 110.936 34.8283H111.529L114.356 31.4715C114.798 30.9742 115.019 30.3865 115.019 29.7083C115.019 29.3467 114.937 28.9963 114.775 28.6572L114.53 28.1486L115.054 27.7078H120.184L120.533 28.6572L119.904 28.8268C119.439 28.9624 119.02 29.1545 118.648 29.4032C118.299 29.6292 117.95 29.957 117.601 30.3865L113.623 35.2013C114.67 35.6986 115.438 36.3316 115.926 37.1001L118.369 40.9656C118.555 41.2594 118.718 41.4742 118.858 41.6098C119.02 41.7454 119.206 41.8132 119.416 41.8132C119.835 41.8132 120.23 41.6776 120.602 41.4064L121.091 42.254C120.323 43.0226 119.428 43.4069 118.404 43.4069ZM128.392 43.4069C127.368 43.4069 126.415 43.1243 125.531 42.5592C124.67 41.9715 123.972 41.1238 123.437 40.0162C122.925 38.8859 122.669 37.5183 122.669 35.9134C122.669 33.2686 123.402 31.1777 124.868 29.6405C126.356 28.1034 128.357 27.3348 130.87 27.3348C131.707 27.3348 132.847 27.4592 134.29 27.7078C135.36 27.8887 136.325 28.013 137.186 28.0808L137.605 28.4538L137.151 29.0302C136.988 29.3015 136.872 29.5162 136.802 29.6744C136.756 29.8101 136.733 30.0022 136.733 30.2509V40.2535C136.733 40.8864 137.07 41.2029 137.745 41.2029C138.256 41.2029 138.78 41.0221 139.315 40.6604L139.908 41.4403C139.35 42.0506 138.757 42.5366 138.128 42.8983C137.5 43.2373 136.93 43.4069 136.418 43.4069C135.534 43.4069 134.895 43.1582 134.499 42.6609C134.104 42.141 133.906 41.3046 133.906 40.1518C133.068 41.3498 132.196 42.1975 131.289 42.6948C130.405 43.1695 129.439 43.4069 128.392 43.4069ZM129.614 40.9995C131.382 40.9995 132.812 40.0727 133.906 38.2191V29.9118C132.999 29.3241 131.975 29.0302 130.835 29.0302C129.323 29.0302 128.136 29.584 127.275 30.6917C126.438 31.7767 126.019 33.3251 126.019 35.337C126.019 37.281 126.356 38.7164 127.031 39.6432C127.729 40.5474 128.59 40.9995 129.614 40.9995Z" fill="#696969"/>
<path d="M125.802 11.5875C125.234 11.9076 124.706 12.2608 124.217 12.6471C123.74 13.0335 123.325 13.4474 122.973 13.8889C122.621 14.3193 122.343 14.7774 122.139 15.2631C121.945 15.7486 121.849 16.2563 121.849 16.7861C121.849 17.3823 121.945 17.9396 122.139 18.4584C122.343 18.9771 122.627 19.4297 122.99 19.8161C123.354 20.1912 123.797 20.4893 124.32 20.7101C124.853 20.9308 125.45 21.0412 126.109 21.0412C127.006 21.0412 127.858 20.8479 128.664 20.4617C129.482 20.0753 130.261 19.6009 130.999 19.0379C130.488 18.497 129.994 17.9232 129.517 17.3159C129.051 16.7089 128.602 16.0908 128.17 15.4618C127.739 14.8215 127.324 14.1758 126.926 13.5246C126.54 12.8624 126.165 12.2167 125.802 11.5875ZM128.256 9.15376C128.846 8.85575 129.397 8.5467 129.908 8.22661C130.42 7.90654 130.863 7.56436 131.237 7.20014C131.624 6.82485 131.925 6.41645 132.141 5.97495C132.357 5.52243 132.464 5.02574 132.464 4.4849C132.464 3.95509 132.39 3.486 132.243 3.07763C132.106 2.65819 131.914 2.30499 131.663 2.01803C131.425 1.72 131.141 1.49373 130.812 1.3392C130.493 1.18468 130.147 1.10743 129.772 1.10743C129.352 1.10743 128.965 1.21228 128.613 1.42199C128.261 1.6317 127.955 1.90764 127.693 2.2498C127.443 2.58093 127.245 2.9562 127.097 3.37563C126.949 3.78403 126.875 4.1924 126.875 4.60079C126.875 5.26304 126.995 5.99153 127.233 6.78623C127.483 7.58093 127.824 8.3701 128.256 9.15376ZM138.155 10.6438C138.019 11.4275 137.849 12.1284 137.644 12.7465C137.451 13.3646 137.213 13.9496 136.929 14.5014C136.656 15.0422 136.332 15.572 135.957 16.0908C135.594 16.6095 135.179 17.156 134.714 17.7298C135.588 18.5909 136.412 19.2752 137.184 19.7829C137.968 20.2795 138.689 20.5279 139.348 20.5279C140.2 20.5279 140.927 20.3678 141.529 20.0478C142.132 19.7167 142.614 19.1372 142.978 18.3093L143.625 18.5413C143.478 19.2585 143.233 19.8933 142.893 20.4452C142.563 20.9969 142.154 21.4662 141.666 21.8524C141.177 22.2277 140.621 22.5091 139.996 22.6968C139.371 22.8955 138.695 22.9949 137.968 22.9949C137.037 22.9949 136.077 22.741 135.088 22.2331C134.112 21.7144 133.152 21.0245 132.209 20.1636C131.095 21.0026 129.88 21.6869 128.562 22.2167C127.256 22.7354 125.842 22.9949 124.32 22.9949C123.252 22.9949 122.343 22.879 121.593 22.6471C120.843 22.4154 120.23 22.0897 119.753 21.6704C119.276 21.2508 118.924 20.7488 118.696 20.1636C118.481 19.5787 118.373 18.9331 118.373 18.2267C118.373 17.2222 118.566 16.3338 118.952 15.561C119.35 14.7774 119.867 14.0765 120.503 13.4584C121.15 12.8403 121.883 12.2939 122.701 11.8193C123.519 11.3337 124.359 10.8867 125.223 10.4783C124.745 9.50696 124.365 8.61294 124.081 7.79615C123.808 6.97938 123.672 6.28954 123.672 5.72663C123.672 4.99814 123.791 4.29174 124.03 3.60743C124.28 2.92309 124.649 2.31603 125.137 1.78623C125.637 1.25643 126.256 0.831485 126.995 0.511391C127.733 0.191297 128.591 0.03125 129.568 0.03125C130.295 0.03125 130.976 0.136127 131.612 0.345833C132.26 0.544497 132.822 0.842528 133.299 1.23988C133.776 1.62619 134.151 2.1063 134.424 2.68025C134.708 3.24318 134.85 3.88335 134.85 4.60079C134.85 5.31824 134.674 5.94736 134.322 6.4882C133.97 7.02905 133.509 7.5147 132.942 7.94515C132.373 8.37563 131.726 8.76745 130.999 9.12065C130.283 9.47385 129.556 9.82154 128.818 10.1637C129.409 11.2564 130.119 12.3436 130.948 13.4253C131.788 14.4959 132.691 15.5499 133.657 16.5876C134.782 15.3514 135.622 14.209 136.179 13.1604C136.747 12.1118 137.122 11.1957 137.304 10.412L138.155 10.6438Z" fill="#696969"/>
<path d="M149.227 15.5326L148.889 15.4424L148.982 15.1142C149.135 14.5711 148.806 14.0081 148.247 13.859L140.769 11.8642C140.209 11.7151 139.63 12.0356 139.477 12.5787L139.384 12.907L139.046 12.8168C138.859 12.767 138.667 12.8735 138.615 13.055C138.564 13.2364 138.674 13.4236 138.861 13.4734L139.198 13.5635L139.106 13.8918C138.952 14.4349 139.282 14.9978 139.841 15.1471L147.319 17.1418C147.878 17.2908 148.458 16.9703 148.611 16.4274L148.704 16.0991L149.042 16.1893C149.228 16.239 149.338 16.4264 149.287 16.6075L148.73 18.5774C148.679 18.7585 148.486 18.8652 148.3 18.8155L144.223 17.7278C143.664 17.5788 143.084 17.8993 142.931 18.4425L143.606 18.6226C143.658 18.4415 143.851 18.3349 144.037 18.3846L148.114 19.4719C148.673 19.6212 149.252 19.3005 149.406 18.7575L149.962 16.7879C150.116 16.2449 149.786 15.6816 149.227 15.5326Z" fill="#696969"/>
<path d="M137.259 10.5895L138.087 8.34153C138.105 8.28043 138.146 8.23232 138.201 8.20781L139.025 7.83952C139.151 7.42733 139.085 7.64651 139.276 7.00083C139.295 6.93721 139.287 6.86843 139.259 6.80869C139.161 6.60256 138.888 6.59552 138.828 6.80137L138.579 7.64144L137.705 7.25281C137.543 7.18066 137.485 6.96094 137.596 6.83808L140.755 3.3146C140.887 3.16649 141.141 3.27979 141.165 3.49814L141.729 8.67663C141.749 8.85737 141.59 8.97967 141.428 8.90781L139.66 8.12161L138.507 8.63646L138.107 10.9427L137.259 10.5895Z" fill="#696969"/>
<path d="M0.139587 21.4294L0.90732 21.2598C1.69832 21.0564 2.22177 20.7738 2.47768 20.4122C2.75686 20.0279 2.89645 19.361 2.89645 18.4116V3.22119C2.89645 2.94993 2.83828 2.76909 2.72196 2.67867C2.60564 2.56565 2.43115 2.50914 2.19851 2.50914H0.383866L0 1.35629C0.907321 1.01722 2.10545 0.712053 3.59438 0.440795C5.08332 0.146932 6.5141 0 7.88671 0C10.9809 0 13.2841 0.678145 14.7963 2.03444C16.3085 3.39073 17.0646 5.1426 17.0646 7.29006C17.0646 8.62374 16.7854 9.8331 16.2271 10.9181C15.692 12.0032 14.8545 12.8735 13.7145 13.529C12.5978 14.1619 11.2019 14.4784 9.52687 14.4784C8.7824 14.4784 8.13099 14.388 7.57264 14.2071C7.01429 14.0037 6.73511 13.7324 6.73511 13.3934C6.73511 13.1899 6.77001 13.0204 6.8398 12.8848C6.93286 12.7265 7.06082 12.6474 7.22367 12.6474C7.29346 12.6474 7.46795 12.6926 7.74712 12.783C8.0263 12.8508 8.36363 12.8848 8.75913 12.8848C10.3411 12.8848 11.5742 12.3875 12.4582 11.3928C13.3655 10.3982 13.8192 9.07584 13.8192 7.42569C13.8192 5.75293 13.3423 4.38534 12.3884 3.32291C11.4578 2.23788 10.1317 1.69536 8.41016 1.69536C6.82817 1.69536 6.03717 2.18137 6.03717 3.15337V16.3094C6.03717 17.5753 6.14186 18.5812 6.35124 19.3271C6.56063 20.0505 6.93286 20.7512 7.46795 21.4294L7.88671 21.9719L7.46795 22.4805H0.523454L0.139587 21.4294ZM26.3843 22.9213C24.9186 22.9213 23.639 22.5935 22.5456 21.938C21.4522 21.2825 20.603 20.367 19.9981 19.1915C19.3932 17.9934 19.0908 16.6146 19.0908 15.0548C19.0908 13.4273 19.4281 11.9919 20.1028 10.7486C20.7775 9.50533 21.7313 8.54463 22.9644 7.86648C24.2207 7.18834 25.6631 6.84926 27.2916 6.84926C29.0132 6.84926 30.3393 7.29006 31.2698 8.17165C32.2237 9.05324 32.7006 10.1157 32.7006 11.3589C32.7006 12.2179 32.4563 13.043 31.9678 13.8342C31.5025 14.6253 30.8046 15.2696 29.874 15.7669C28.9666 16.2642 27.8965 16.5128 26.6634 16.5128C25.9655 16.5128 25.2094 16.3998 24.3951 16.1738C23.5809 15.9251 23.1738 15.5634 23.1738 15.0887C23.1738 14.9079 23.2203 14.7497 23.3133 14.614C23.4064 14.4784 23.5111 14.4106 23.6274 14.4106C23.6972 14.4106 23.9066 14.4784 24.2556 14.614C24.6278 14.7271 25.1047 14.7836 25.6863 14.7836C26.9659 14.7836 27.9546 14.4445 28.6526 13.7663C29.3505 13.0882 29.6995 12.2744 29.6995 11.325C29.6995 10.5112 29.4203 9.8105 28.862 9.22277C28.3269 8.63505 27.6057 8.34118 26.6983 8.34118C25.3257 8.34118 24.2556 8.92891 23.4878 10.1044C22.7434 11.2572 22.3711 12.9074 22.3711 15.0548C22.3711 16.8858 22.7666 18.3212 23.5576 19.361C24.3719 20.3783 25.5351 20.8869 27.0473 20.8869C28.9085 20.8869 30.444 20.2991 31.6537 19.1237C31.7235 19.0559 31.8166 19.022 31.9329 19.022C32.119 19.022 32.3051 19.1124 32.4912 19.2932C32.7006 19.4741 32.8053 19.6662 32.8053 19.8696C32.8053 19.9375 32.782 20.0053 32.7355 20.0731C32.689 20.1183 32.6657 20.1522 32.6657 20.1748C31.8747 21.079 30.9325 21.7685 29.8391 22.2432C28.7689 22.6953 27.6173 22.9213 26.3843 22.9213ZM34.3238 21.5311L35.0566 21.3277C35.7779 21.1242 36.2548 20.8417 36.4874 20.48C36.7433 20.1183 36.9411 19.5419 37.0807 18.7507L38.337 10.4095C38.3602 10.3191 38.3719 10.1835 38.3719 10.0026C38.3719 9.55054 38.2206 9.20017 37.9182 8.95151C37.639 8.70286 37.197 8.49942 36.5921 8.34118L35.9989 8.13774L36.278 7.22224H41.5824L46.119 16.5806L50.7254 7.22224H54.8432L55.3318 7.62913L54.913 8.13774C54.1685 9.10975 53.7963 10.0478 53.7963 10.952C53.7963 11.2233 53.8312 11.4946 53.901 11.7658L54.9828 16.9875C55.0293 17.1684 55.0759 17.417 55.1224 17.7335C55.4016 18.9315 55.6458 19.8244 55.8552 20.4122C56.0646 20.9773 56.4368 21.5198 56.9719 22.0397L56.623 22.4805H50.2368L49.8878 21.5311L50.516 21.3277C51.1209 21.1694 51.5629 20.9208 51.8421 20.5817C52.1213 20.2426 52.2608 19.7905 52.2608 19.2254C52.2608 18.9315 52.2259 18.6038 52.1562 18.2421L50.8999 10.5791L46.1539 20.4461H45.1768L40.3959 10.5791L39.2094 17.9708C39.1629 18.2873 39.1396 18.5134 39.1396 18.649C39.1396 19.5758 39.4886 20.5365 40.1865 21.5311L40.5704 22.0397L40.1516 22.4805H34.7077L34.3238 21.5311ZM67.0172 22.9213C64.6442 22.9213 62.7597 22.1979 61.3639 20.7512C59.968 19.2819 59.27 17.3153 59.27 14.8514C59.27 12.3874 59.968 10.4434 61.3639 9.01933C62.7597 7.57262 64.6442 6.84926 67.0172 6.84926C68.5759 6.84926 69.9369 7.17704 71.1001 7.83258C72.2633 8.48812 73.159 9.41491 73.7872 10.613C74.4153 11.811 74.7294 13.2238 74.7294 14.8514C74.7294 16.4789 74.4037 17.903 73.7523 19.1237C73.1241 20.3444 72.2284 21.2825 71.0652 21.938C69.902 22.5935 68.5526 22.9213 67.0172 22.9213ZM66.9474 21.2598C68.2735 21.2598 69.3436 20.6834 70.1579 19.5306C70.9954 18.3551 71.4142 16.818 71.4142 14.9192C71.4142 13.9472 71.2746 12.9752 70.9954 12.0032C70.7162 11.0086 70.2509 10.1722 69.5995 9.49403C68.9714 8.79328 68.1455 8.44291 67.1219 8.44291C65.7492 8.44291 64.6442 9.03063 63.8066 10.2061C62.9924 11.3815 62.5853 12.9413 62.5853 14.8853C62.5853 16.8293 62.9691 18.3777 63.7369 19.5306C64.5278 20.6834 65.598 21.2598 66.9474 21.2598ZM77.676 21.5311L78.339 21.3277C79.0602 21.1242 79.5372 20.8643 79.7698 20.5478C80.0257 20.2087 80.1537 19.6097 80.1537 18.7507V10.952C80.1537 10.0931 80.0257 9.49403 79.7698 9.15496C79.5372 8.81588 79.0602 8.54463 78.339 8.34118L77.676 8.13774L78.025 7.22224H84.3064L84.6903 7.62913L84.3064 8.13774C83.8411 8.74807 83.5038 9.41491 83.2944 10.1383C83.1083 10.839 83.0152 11.7658 83.0152 12.9187V13.902H90.6228V10.952C90.6228 10.0931 90.4948 9.49403 90.2389 9.15496C90.0062 8.81588 89.5177 8.54463 88.7732 8.34118L88.0753 8.13774L88.4592 7.22224H94.7406L95.1594 7.62913L94.7406 8.13774C94.2753 8.74807 93.9496 9.40361 93.7635 10.1044C93.5774 10.8051 93.4843 11.7432 93.4843 12.9187V18.9542C93.4843 19.7679 93.6006 20.333 93.8333 20.6495C94.0659 20.9434 94.5312 21.192 95.2292 21.3955L95.7875 21.565L95.5083 22.4805H88.4592L88.0753 21.5311L88.7732 21.3277C89.5177 21.1242 90.0062 20.8643 90.2389 20.5478C90.4948 20.2087 90.6228 19.6097 90.6228 18.7507V15.6991H83.0152V18.9542C83.0152 19.7679 83.1316 20.333 83.3642 20.6495C83.6201 20.9434 84.097 21.192 84.795 21.3955L85.4231 21.565L85.109 22.4805H78.025L77.676 21.5311ZM101.979 22.0058L102.363 21.5311C102.851 20.9208 103.189 20.2652 103.375 19.5645C103.561 18.8637 103.654 17.9369 103.654 16.7841V11.1216C103.654 10.2626 103.584 9.69747 103.445 9.42622C103.328 9.15496 103.061 9.01933 102.642 9.01933H102.328C101.607 9.01933 101.048 9.08714 100.653 9.22277C100.281 9.3584 99.9783 9.59575 99.7457 9.93482C99.5363 10.2739 99.3385 10.8051 99.1524 11.5285L98.943 12.1388L97.9659 11.8675V6.81536L98.4545 6.40847L98.943 6.81536C99.2222 7.0188 99.6293 7.16573 100.164 7.25615C100.7 7.34657 101.409 7.39178 102.293 7.39178H107.912C108.796 7.39178 109.494 7.34657 110.005 7.25615C110.517 7.16573 110.913 7.0188 111.192 6.81536L111.68 6.40847L112.204 6.81536V11.8675L111.192 12.1388L111.052 11.5285C110.843 10.8051 110.622 10.2739 110.389 9.93482C110.18 9.59575 109.889 9.3584 109.517 9.22277C109.145 9.08714 108.609 9.01933 107.912 9.01933H107.493C107.097 9.01933 106.83 9.15496 106.69 9.42622C106.574 9.69747 106.516 10.2626 106.516 11.1216V18.7507C106.516 19.6097 106.632 20.2087 106.865 20.5478C107.097 20.8643 107.586 21.1242 108.33 21.3277L109.063 21.5311L108.679 22.4805H102.363L101.979 22.0058Z" fill="#696969"/>
<path d="M156.557 38.502C156.557 39.0996 156.387 39.5566 156.047 39.873C155.711 40.1855 155.234 40.3418 154.617 40.3418C154.004 40.3418 153.512 40.1367 153.141 39.7266C152.773 39.3125 152.59 38.75 152.59 38.0391V37.3945C152.59 36.707 152.775 36.1582 153.146 35.748C153.521 35.334 154.012 35.127 154.617 35.127C155.242 35.127 155.723 35.2871 156.059 35.6074C156.395 35.9277 156.562 36.3789 156.562 36.9609H155.707C155.707 36.5742 155.613 36.2988 155.426 36.1348C155.242 35.9668 154.973 35.8828 154.617 35.8828C154.25 35.8828 153.961 36.0176 153.75 36.2871C153.539 36.5566 153.434 36.9316 153.434 37.4121V38.0742C153.434 38.543 153.539 38.9121 153.75 39.1816C153.961 39.4512 154.25 39.5859 154.617 39.5859C154.977 39.5859 155.246 39.5039 155.426 39.3398C155.609 39.1758 155.701 38.8965 155.701 38.502H156.557ZM151.207 37.7285C151.207 38.4004 151.363 39.0234 151.676 39.5977C151.988 40.168 152.412 40.6152 152.947 40.9395C153.486 41.2637 154.068 41.4258 154.693 41.4258C155.318 41.4258 155.898 41.2637 156.434 40.9395C156.969 40.6152 157.393 40.168 157.705 39.5977C158.018 39.0234 158.174 38.4004 158.174 37.7285C158.174 37.0645 158.02 36.4492 157.711 35.8828C157.402 35.3164 156.979 34.8711 156.439 34.5469C155.904 34.2188 155.322 34.0547 154.693 34.0547C154.068 34.0547 153.486 34.2168 152.947 34.541C152.408 34.8613 151.982 35.3066 151.67 35.877C151.361 36.4473 151.207 37.0645 151.207 37.7285ZM150.533 37.7285C150.533 36.9395 150.715 36.207 151.078 35.5312C151.445 34.8555 151.951 34.3242 152.596 33.9375C153.244 33.5469 153.943 33.3516 154.693 33.3516C155.443 33.3516 156.141 33.5469 156.785 33.9375C157.43 34.3242 157.934 34.8555 158.297 35.5312C158.664 36.207 158.848 36.9395 158.848 37.7285C158.848 38.498 158.672 39.2188 158.32 39.8906C157.969 40.5625 157.469 41.1035 156.82 41.5137C156.176 41.9199 155.467 42.123 154.693 42.123C153.924 42.123 153.215 41.9219 152.566 41.5195C151.922 41.1133 151.422 40.5742 151.066 39.9023C150.711 39.2305 150.533 38.5059 150.533 37.7285ZM168.709 42H163.119V41.2207L166.072 37.9395C166.51 37.4434 166.811 37.041 166.975 36.7324C167.143 36.4199 167.227 36.0977 167.227 35.7656C167.227 35.3203 167.092 34.9551 166.822 34.6699C166.553 34.3848 166.193 34.2422 165.744 34.2422C165.205 34.2422 164.785 34.3965 164.484 34.7051C164.188 35.0098 164.039 35.4355 164.039 35.9824H162.955C162.955 35.1973 163.207 34.5625 163.711 34.0781C164.219 33.5938 164.896 33.3516 165.744 33.3516C166.537 33.3516 167.164 33.5605 167.625 33.9785C168.086 34.3926 168.316 34.9453 168.316 35.6367C168.316 36.4766 167.781 37.4766 166.711 38.6367L164.426 41.1152H168.709V42ZM175.207 38.3613C175.207 39.6309 174.99 40.5742 174.557 41.1914C174.123 41.8086 173.445 42.1172 172.523 42.1172C171.613 42.1172 170.939 41.8164 170.502 41.2148C170.064 40.6094 169.838 39.707 169.822 38.5078V37.0605C169.822 35.8066 170.039 34.875 170.473 34.2656C170.906 33.6562 171.586 33.3516 172.512 33.3516C173.43 33.3516 174.105 33.6465 174.539 34.2363C174.973 34.8223 175.195 35.7285 175.207 36.9551V38.3613ZM174.123 36.8789C174.123 35.9609 173.994 35.293 173.736 34.875C173.479 34.4531 173.07 34.2422 172.512 34.2422C171.957 34.2422 171.553 34.4512 171.299 34.8691C171.045 35.2871 170.914 35.9297 170.906 36.7969V38.5312C170.906 39.4531 171.039 40.1348 171.305 40.5762C171.574 41.0137 171.98 41.2324 172.523 41.2324C173.059 41.2324 173.455 41.0254 173.713 40.6113C173.975 40.1973 174.111 39.5449 174.123 38.6543V36.8789ZM182.186 42H176.596V41.2207L179.549 37.9395C179.986 37.4434 180.287 37.041 180.451 36.7324C180.619 36.4199 180.703 36.0977 180.703 35.7656C180.703 35.3203 180.568 34.9551 180.299 34.6699C180.029 34.3848 179.67 34.2422 179.221 34.2422C178.682 34.2422 178.262 34.3965 177.961 34.7051C177.664 35.0098 177.516 35.4355 177.516 35.9824H176.432C176.432 35.1973 176.684 34.5625 177.188 34.0781C177.695 33.5938 178.373 33.3516 179.221 33.3516C180.014 33.3516 180.641 33.5605 181.102 33.9785C181.562 34.3926 181.793 34.9453 181.793 35.6367C181.793 36.4766 181.258 37.4766 180.188 38.6367L177.902 41.1152H182.186V42ZM186.896 42H185.807V34.7754L183.621 35.5781V34.5938L186.727 33.4277H186.896V42Z" fill="#696969"/>
</svg>
