<svg width="177" height="67" viewBox="0 0 177 67" fill="none" xmlns="http://www.w3.org/2000/svg">
<path d="M52.9296 15.156L44.7709 9.69754V3.39209C44.7709 2.25198 43.39 1.328 41.6834 1.328C39.9807 1.328 38.5997 2.25198 38.5997 3.39209V5.56886L32.525 1.50445C29.5215 -0.50387 24.2995 -0.500307 21.3029 1.50809L0.903183 15.156C-0.301061 15.9633 -0.301061 17.2695 0.903183 18.0756C2.10797 18.8827 4.06419 18.8827 5.26854 18.0756L25.6663 4.42729C26.3308 3.98505 27.5021 3.98505 28.1631 4.42599L48.5644 18.0756C49.1693 18.4792 49.958 18.6799 50.7465 18.6799C51.5366 18.6799 52.3266 18.4789 52.9297 18.0756C54.1344 17.2696 54.1344 15.9634 52.9296 15.156Z" fill="white"/>
<path d="M27.7543 7.26462C27.1889 6.87736 26.2734 6.87736 25.7096 7.26462L16.6278 13.4865C16.0009 13.916 15.5603 14.5673 15.3951 15.3091L14.5746 18.9922V18.9922C14.0894 17.3067 12.0966 16.5907 10.6497 17.582L8.59133 18.9922C8.32107 19.1773 8.16785 19.4301 8.16785 19.6938V28.2475V28.882C8.16785 30.5389 9.511 31.882 11.1678 31.882H21.9468H42.2942C43.9511 31.882 45.2942 30.5389 45.2942 28.882V28.2475V19.6938C45.2942 19.4301 45.1423 19.1773 44.8707 18.9922L40.672 16.1154C39.1632 15.0816 37.0885 15.6269 36.283 17.2689L35.4376 18.9922L34.6966 15.4086C34.173 12.8765 32.689 10.6457 30.556 9.18424L27.7543 7.26462Z" fill="white"/>
<path fill-rule="evenodd" clip-rule="evenodd" d="M8.17163 35.239V40.1181C8.17163 40.5756 8.41744 41.0145 8.85514 41.338C9.29284 41.6615 9.88657 41.8433 10.5056 41.8432L17.7003 41.8432C19.0865 41.8432 20.3791 42.3017 21.2467 43.1011C22.1137 43.8998 22.4388 44.9325 22.1387 45.9344C18.3063 58.7274 18.3065 60.184 18.3066 60.6626C18.3065 64.0976 22.0873 66.8921 26.7349 66.8922C31.387 66.8922 35.1635 64.0941 35.1633 60.6626C35.1634 60.1839 35.1633 58.7268 31.331 45.9344C31.0316 44.935 31.3575 43.9035 32.2248 43.1042C33.0956 42.303 34.3864 41.8434 35.7692 41.8433H42.9639C44.2528 41.8433 45.298 41.0708 45.298 40.1181L45.298 35.2388C45.298 34.8374 44.8577 34.512 44.3146 34.512L9.15498 34.5121C8.61189 34.5122 8.17163 34.8376 8.17163 35.239ZM26.7349 62.9515C28.5569 62.9515 30.034 61.8598 30.034 60.5131C30.034 59.1663 28.5569 58.0746 26.7349 58.0747C24.9129 58.0746 23.4359 59.1663 23.4359 60.5131C23.4358 61.8597 24.9128 62.9515 26.7349 62.9515Z" fill="white"/>
<path d="M65.6494 15.2C67.1694 15.2 68.4894 15.456 69.6094 15.968C70.7294 16.464 71.5934 17.184 72.2014 18.128C72.8094 19.056 73.1134 20.152 73.1134 21.416C73.1134 22.68 72.8094 23.776 72.2014 24.704C71.5934 25.632 70.7294 26.352 69.6094 26.864C68.4894 27.36 67.1694 27.608 65.6494 27.608H62.7214V32H57.9694V15.2H65.6494ZM65.3614 23.864C66.3374 23.864 67.0734 23.656 67.5694 23.24C68.0654 22.808 68.3134 22.2 68.3134 21.416C68.3134 20.632 68.0654 20.024 67.5694 19.592C67.0734 19.16 66.3374 18.944 65.3614 18.944H62.7214V23.864H65.3614ZM88.7542 28.328V32H75.2662V15.2H88.4422V18.872H79.9702V21.704H87.4342V25.256H79.9702V28.328H88.7542ZM106.606 32L106.582 23.096L102.262 30.344H100.15L95.8296 23.288V32H91.4616V15.2H95.3736L101.278 24.896L107.038 15.2H110.95L110.998 32H106.606ZM122.827 32.336C121.051 32.336 119.451 31.96 118.027 31.208C116.619 30.456 115.507 29.416 114.691 28.088C113.891 26.76 113.491 25.264 113.491 23.6C113.491 21.936 113.891 20.44 114.691 19.112C115.507 17.784 116.619 16.744 118.027 15.992C119.451 15.24 121.051 14.864 122.827 14.864C124.603 14.864 126.195 15.24 127.603 15.992C129.027 16.744 130.139 17.784 130.939 19.112C131.755 20.44 132.163 21.936 132.163 23.6C132.163 25.264 131.755 26.76 130.939 28.088C130.139 29.416 129.027 30.456 127.603 31.208C126.195 31.96 124.603 32.336 122.827 32.336ZM122.827 28.4C123.675 28.4 124.443 28.2 125.131 27.8C125.819 27.4 126.363 26.84 126.763 26.12C127.163 25.384 127.363 24.544 127.363 23.6C127.363 22.656 127.163 21.824 126.763 21.104C126.363 20.368 125.819 19.8 125.131 19.4C124.443 19 123.675 18.8 122.827 18.8C121.979 18.8 121.211 19 120.523 19.4C119.835 19.8 119.291 20.368 118.891 21.104C118.491 21.824 118.291 22.656 118.291 23.6C118.291 24.544 118.491 25.384 118.891 26.12C119.291 26.84 119.835 27.4 120.523 27.8C121.211 28.2 121.979 28.4 122.827 28.4ZM150.688 15.2V32H145.936V25.448H139.456V32H134.704V15.2H139.456V21.512H145.936V15.2H150.688ZM167.833 18.968H162.697V32H158.017V18.968H152.857V15.2H167.833V18.968ZM58.5847 54.336C56.8087 54.336 55.2087 53.96 53.7847 53.208C52.3767 52.456 51.2647 51.416 50.4487 50.088C49.6487 48.76 49.2487 47.264 49.2487 45.6C49.2487 43.936 49.6487 42.44 50.4487 41.112C51.2647 39.784 52.3767 38.744 53.7847 37.992C55.2087 37.24 56.8087 36.864 58.5847 36.864C60.3607 36.864 61.9527 37.24 63.3607 37.992C64.7847 38.744 65.8967 39.784 66.6967 41.112C67.5127 42.44 67.9207 43.936 67.9207 45.6C67.9207 47.264 67.5127 48.76 66.6967 50.088C65.8967 51.416 64.7847 52.456 63.3607 53.208C61.9527 53.96 60.3607 54.336 58.5847 54.336ZM58.5847 50.4C59.4327 50.4 60.2007 50.2 60.8887 49.8C61.5767 49.4 62.1207 48.84 62.5207 48.12C62.9207 47.384 63.1207 46.544 63.1207 45.6C63.1207 44.656 62.9207 43.824 62.5207 43.104C62.1207 42.368 61.5767 41.8 60.8887 41.4C60.2007 41 59.4327 40.8 58.5847 40.8C57.7367 40.8 56.9687 41 56.2807 41.4C55.5927 41.8 55.0487 42.368 54.6487 43.104C54.2487 43.824 54.0487 44.656 54.0487 45.6C54.0487 46.544 54.2487 47.384 54.6487 48.12C55.0487 48.84 55.5927 49.4 56.2807 49.8C56.9687 50.2 57.7367 50.4 58.5847 50.4ZM83.7632 40.968H78.6272V54H73.9472V40.968H68.7872V37.2H83.7632V40.968ZM103.064 50.232V57.384H98.7202V54H87.9682V57.384H83.6002V50.232H84.2002C85.1922 50.216 85.8882 49.536 86.2882 48.192C86.7042 46.848 86.9602 44.912 87.0562 42.384L87.2482 37.2H100.784V50.232H103.064ZM91.2082 42.792C91.1442 44.584 91.0002 46.104 90.7762 47.352C90.5522 48.6 90.2082 49.56 89.7442 50.232H96.1042V40.968H91.2802L91.2082 42.792ZM118.825 50.328V54H105.337V37.2H118.513V40.872H110.041V43.704H117.505V47.256H110.041V50.328H118.825ZM137.204 37.2V54H132.524V40.968H127.7L127.604 43.704C127.524 46.104 127.324 48.056 127.004 49.56C126.7 51.064 126.172 52.232 125.42 53.064C124.668 53.88 123.604 54.288 122.228 54.288C121.588 54.288 120.868 54.192 120.068 54L120.332 50.112C120.54 50.16 120.756 50.184 120.98 50.184C121.604 50.184 122.084 49.936 122.42 49.44C122.756 48.944 122.996 48.256 123.14 47.376C123.284 46.48 123.38 45.32 123.428 43.896L123.668 37.2H137.204ZM147.589 47.568H145.429V54H140.701V37.2H145.429V43.728H147.709L151.717 37.2H156.709L151.453 45.312L156.757 54H151.405L147.589 47.568ZM169.475 50.736H162.371L161.051 54H156.203L163.619 37.2H168.299L175.739 54H170.795L169.475 50.736ZM168.083 47.232L165.923 41.856L163.763 47.232H168.083Z" fill="white"/>
</svg>
