<svg width="170" height="76" viewBox="0 0 170 76" fill="none" xmlns="http://www.w3.org/2000/svg">
<g filter="url(#filter0_f)">
<path d="M30.6128 66C28.3328 66 26.4135 65.5027 24.8548 64.5081C23.296 63.4909 22.1212 62.1233 21.3302 60.4053C20.5625 58.6873 20.1786 56.7433 20.1786 54.5733C20.1786 52.4032 20.5625 50.4479 21.3302 48.7073C22.1212 46.9667 23.296 45.5991 24.8548 44.6045C26.4135 43.5873 28.3328 43.0787 30.6128 43.0787C32.8927 43.0787 34.812 43.5873 36.3708 44.6045C37.9528 45.5991 39.1393 46.9667 39.9303 48.7073C40.7212 50.4479 41.1167 52.4032 41.1167 54.5733C41.1167 56.7433 40.7212 58.6873 39.9303 60.4053C39.1393 62.1233 37.9528 63.4909 36.3708 64.5081C34.812 65.5027 32.8927 66 30.6128 66ZM30.4732 64.2029C31.9621 64.2029 33.2417 63.7847 34.3118 62.9483C35.4053 62.0894 36.2428 60.9365 36.8244 59.4898C37.406 58.0431 37.6968 56.4382 37.6968 54.675C37.6968 53.1831 37.4758 51.6911 37.0338 50.1992C36.5918 48.6847 35.8589 47.4075 34.8353 46.3677C33.8117 45.3279 32.4739 44.808 30.8222 44.808C29.3332 44.808 28.042 45.2601 26.9486 46.1643C25.8552 47.0458 25.0176 48.2552 24.436 49.7923C23.8777 51.3069 23.5985 52.9909 23.5985 54.8445C23.5985 57.5571 24.1917 59.795 25.3782 61.5581C26.588 63.3213 28.2863 64.2029 30.4732 64.2029Z" fill="black" fill-opacity="0.27"/>
<path d="M46.9682 58.4914L47.3521 58.0167C47.8406 57.4064 48.178 56.7509 48.3641 56.0501C48.5502 55.3494 48.6433 54.4226 48.6433 53.2697V47.6072C48.6433 46.7482 48.5735 46.1831 48.4339 45.9118C48.3176 45.6406 48.05 45.5049 47.6313 45.5049H47.3172C46.596 45.5049 46.0376 45.5728 45.6421 45.7084C45.2699 45.844 44.9675 46.0814 44.7348 46.4204C44.5254 46.7595 44.3277 47.2907 44.1416 48.0141L43.9322 48.6244L42.9551 48.3532V43.301L43.4436 42.8941L43.9322 43.301C44.2114 43.5044 44.6185 43.6514 45.1536 43.7418C45.6887 43.8322 46.3982 43.8774 47.2823 43.8774H52.9007C53.7848 43.8774 54.4827 43.8322 54.9945 43.7418C55.5063 43.6514 55.9018 43.5044 56.181 43.301L56.6696 42.8941L57.193 43.301V48.3532L56.181 48.6244L56.0414 48.0141C55.832 47.2907 55.611 46.7595 55.3784 46.4204C55.169 46.0814 54.8782 45.844 54.506 45.7084C54.1337 45.5728 53.5986 45.5049 52.9007 45.5049H52.4819C52.0864 45.5049 51.8189 45.6406 51.6793 45.9118C51.563 46.1831 51.5048 46.7482 51.5048 47.6072V55.2363C51.5048 56.0953 51.6212 56.6943 51.8538 57.0334C52.0864 57.3499 52.575 57.6098 53.3195 57.8133L54.0523 58.0167L53.6684 58.9661H47.3521L46.9682 58.4914ZM74.7239 63.8488C74.3051 62.063 73.7933 60.7971 73.1884 60.0512C72.5835 59.3278 71.653 58.9661 70.3967 58.9661H63.3126C62.4518 58.9661 61.7655 59.1357 61.2537 59.4747C60.7419 59.8138 60.3231 60.3111 59.9974 60.9667C59.6717 61.6448 59.3343 62.6055 58.9854 63.8488L58.776 64.4591L57.7989 64.0861V57.7794C59.1017 57.6437 60.0788 57.2143 60.7302 56.4909C61.3816 55.7675 61.8237 54.8521 62.0563 53.7444C62.3122 52.6142 62.5565 50.9301 62.7891 48.6922L62.9636 47.1664C63.0334 46.8273 63.0683 46.5448 63.0683 46.3187C63.0683 45.8214 62.9171 45.4823 62.6147 45.3015C62.3355 45.1207 61.8004 44.9624 61.0094 44.8268L60.3115 44.6234L60.6604 43.7079H74.3051L74.689 44.1487L74.3051 44.6234C73.8166 45.2337 73.4792 45.8892 73.2931 46.59C73.1303 47.2681 73.0488 48.2062 73.0488 49.4043V55.9823C73.0488 56.57 73.3048 57.0221 73.8166 57.3386C74.3517 57.6324 75.038 57.7794 75.8755 57.7794V64.12L74.8984 64.493L74.7239 63.8488ZM68.3029 57.3725C69.0706 57.3725 69.5708 57.2369 69.8034 56.9656C70.0361 56.6943 70.1524 56.1179 70.1524 55.2363V47.5055C70.1524 46.6465 70.0361 46.0814 69.8034 45.8101C69.5708 45.5389 69.0706 45.4032 68.3029 45.4032H67.1164C66.5115 45.4032 66.0578 45.4823 65.7554 45.6406C65.4762 45.7762 65.3134 46.0701 65.2668 46.5222C64.9876 48.8957 64.7201 50.7719 64.4642 52.1508C64.2083 53.5071 63.8709 54.626 63.4522 55.5076C63.0334 56.3892 62.4867 57.0108 61.812 57.3725H68.3029ZM85.436 59.4069C83.9704 59.4069 82.6908 59.0792 81.5974 58.4236C80.5039 57.7681 79.6548 56.8526 79.0499 55.6771C78.445 54.4791 78.1426 53.1002 78.1426 51.5404C78.1426 49.9129 78.4799 48.4775 79.1546 47.2342C79.8293 45.991 80.7831 45.0302 82.0161 44.3521C83.2724 43.674 84.7148 43.3349 86.3434 43.3349C88.0649 43.3349 89.391 43.7757 90.3216 44.6573C91.2755 45.5389 91.7524 46.6013 91.7524 47.8446C91.7524 48.7035 91.5081 49.5286 91.0196 50.3198C90.5543 51.1109 89.8563 51.7552 88.9257 52.2525C88.0184 52.7498 86.9482 52.9985 85.7152 52.9985C85.0173 52.9985 84.2612 52.8854 83.4469 52.6594C82.6326 52.4107 82.2255 52.0491 82.2255 51.5743C82.2255 51.3935 82.272 51.2353 82.3651 51.0996C82.4582 50.964 82.5629 50.8962 82.6792 50.8962C82.749 50.8962 82.9584 50.964 83.3073 51.0996C83.6796 51.2127 84.1565 51.2692 84.7381 51.2692C86.0177 51.2692 87.0064 50.9301 87.7043 50.252C88.4023 49.5738 88.7512 48.76 88.7512 47.8106C88.7512 46.9969 88.4721 46.2961 87.9137 45.7084C87.3786 45.1207 86.6574 44.8268 85.7501 44.8268C84.3775 44.8268 83.3073 45.4145 82.5396 46.59C81.7951 47.7428 81.4229 49.393 81.4229 51.5404C81.4229 53.3714 81.8184 54.8068 82.6094 55.8467C83.4236 56.8639 84.5869 57.3725 86.0991 57.3725C87.9602 57.3725 89.4957 56.7848 90.7055 55.6093C90.7753 55.5415 90.8683 55.5076 90.9846 55.5076C91.1708 55.5076 91.3569 55.598 91.543 55.7788C91.7524 55.9597 91.8571 56.1518 91.8571 56.3553C91.8571 56.4231 91.8338 56.4909 91.7873 56.5587C91.7408 56.6039 91.7175 56.6378 91.7175 56.6604C90.9265 57.5646 89.9843 58.2541 88.8908 58.7288C87.8207 59.1809 86.6691 59.4069 85.436 59.4069ZM95.8884 59.4069C95.0509 59.4069 94.3762 59.1583 93.8644 58.661C93.3523 58.1411 93.0964 57.4629 93.0964 56.6265C93.0964 56.0388 93.236 55.5754 93.5154 55.2363C93.7946 54.8973 94.1668 54.7277 94.6321 54.7277C95.0509 54.7277 95.2952 55.0442 95.3649 55.6771C95.4115 55.9936 95.5162 56.2762 95.679 56.5248C95.8651 56.7509 96.1327 56.8639 96.4816 56.8639C98.2265 56.8639 99.3548 53.6314 99.8666 47.1664L99.9015 46.59C99.9015 45.9797 99.762 45.5615 99.4828 45.3354C99.2036 45.1094 98.6453 44.9398 97.8077 44.8268L97.1447 44.6234L97.4937 43.7079H110.091L110.51 44.1487L110.091 44.6573C109.603 45.2902 109.254 45.957 109.045 46.6578C108.858 47.3585 108.765 48.274 108.765 49.4043V55.4398C108.765 56.2309 108.893 56.7848 109.149 57.1012C109.405 57.4177 109.882 57.6777 110.58 57.8811L111.173 58.0167L110.859 58.9661H103.74L103.391 58.0167L104.054 57.8133C104.799 57.6098 105.299 57.3386 105.555 56.9995C105.811 56.6604 105.939 56.0501 105.939 55.1685V47.4716C105.939 46.59 105.811 46.0136 105.555 45.7423C105.322 45.471 104.822 45.3354 104.054 45.3354H103.496C102.891 45.3354 102.437 45.4145 102.135 45.5728C101.856 45.7084 101.705 46.0023 101.681 46.4544C101.379 49.9807 100.925 52.6933 100.32 54.5921C99.7387 56.4909 99.0757 57.7681 98.3312 58.4236C97.61 59.0792 96.7957 59.4069 95.8884 59.4069ZM114.236 58.0167L114.864 57.8133C115.608 57.6098 116.097 57.3499 116.33 57.0334C116.585 56.6943 116.713 56.0953 116.713 55.2363V47.4377C116.713 46.5787 116.585 45.9797 116.33 45.6406C116.097 45.3015 115.608 45.0302 114.864 44.8268L114.236 44.6234L114.55 43.7079H120.831L121.215 44.1147L120.831 44.6234C120.366 45.2789 120.029 45.957 119.819 46.6578C119.633 47.3585 119.54 48.274 119.54 49.4043V55.4398C119.54 56.2536 119.656 56.8074 119.889 57.1012C120.122 57.3951 120.599 57.655 121.32 57.8811L121.948 58.0506L121.634 58.9661H114.55L114.236 58.0167ZM128.404 59.4069C127.543 59.4069 126.822 59.1809 126.24 58.7288C125.682 58.2767 125.112 57.5759 124.53 56.6265L122.332 53.0663C122.169 52.795 121.971 52.5803 121.739 52.422C121.506 52.2638 121.262 52.1395 121.006 52.049C120.773 51.936 120.622 51.8569 120.552 51.8117C120.459 51.7665 120.412 51.6422 120.412 51.4387C120.412 51.0318 120.587 50.8284 120.936 50.8284H121.529L124.356 47.4716C124.798 46.9743 125.019 46.3865 125.019 45.7084C125.019 45.3467 124.937 44.9963 124.775 44.6573L124.53 44.1487L125.054 43.7079H130.184L130.533 44.6573L129.904 44.8268C129.439 44.9624 129.02 45.1546 128.648 45.4032C128.299 45.6293 127.95 45.957 127.601 46.3865L123.623 51.2014C124.67 51.6987 125.438 52.3316 125.926 53.1002L128.369 56.9656C128.555 57.2595 128.718 57.4742 128.858 57.6098C129.02 57.7455 129.206 57.8133 129.416 57.8133C129.835 57.8133 130.23 57.6777 130.602 57.4064L131.091 58.2541C130.323 59.0226 129.428 59.4069 128.404 59.4069ZM138.392 59.4069C137.368 59.4069 136.415 59.1244 135.531 58.5592C134.67 57.9715 133.972 57.1238 133.437 56.0162C132.925 54.886 132.669 53.5184 132.669 51.9134C132.669 49.2687 133.402 47.1777 134.868 45.6406C136.356 44.1034 138.357 43.3349 140.87 43.3349C141.707 43.3349 142.847 43.4592 144.29 43.7079C145.36 43.8887 146.325 44.013 147.186 44.0808L147.605 44.4538L147.151 45.0302C146.988 45.3015 146.872 45.5163 146.802 45.6745C146.756 45.8101 146.733 46.0023 146.733 46.2509V56.2535C146.733 56.8865 147.07 57.203 147.745 57.203C148.256 57.203 148.78 57.0221 149.315 56.6604L149.908 57.4403C149.35 58.0506 148.757 58.5366 148.128 58.8983C147.5 59.2374 146.93 59.4069 146.418 59.4069C145.534 59.4069 144.895 59.1583 144.499 58.661C144.104 58.1411 143.906 57.3047 143.906 56.1518C143.068 57.3499 142.196 58.1976 141.289 58.6949C140.405 59.1696 139.439 59.4069 138.392 59.4069ZM139.614 56.9995C141.382 56.9995 142.812 56.0727 143.906 54.2191V45.9118C142.999 45.3241 141.975 45.0302 140.835 45.0302C139.323 45.0302 138.136 45.5841 137.275 46.6917C136.438 47.7767 136.019 49.3252 136.019 51.337C136.019 53.281 136.356 54.7164 137.031 55.6432C137.729 56.5474 138.59 56.9995 139.614 56.9995Z" fill="black" fill-opacity="0.27"/>
<path d="M135.802 27.5873C135.234 27.9074 134.706 28.2606 134.217 28.6469C133.74 29.0332 133.325 29.4471 132.973 29.8886C132.621 30.3191 132.343 30.7772 132.139 31.2629C131.945 31.7484 131.849 32.2561 131.849 32.7859C131.849 33.3821 131.945 33.9394 132.139 34.4582C132.343 34.9769 132.627 35.4295 132.99 35.8159C133.354 36.191 133.797 36.4891 134.32 36.7099C134.853 36.9306 135.45 37.041 136.109 37.041C137.006 37.041 137.858 36.8477 138.664 36.4615C139.482 36.0751 140.261 35.6007 140.999 35.0377C140.488 34.4968 139.994 33.923 139.517 33.3157C139.051 32.7086 138.602 32.0905 138.17 31.4616C137.739 30.8213 137.324 30.1756 136.926 29.5244C136.54 28.8622 136.165 28.2165 135.802 27.5873ZM138.256 25.1536C138.846 24.8555 139.397 24.5465 139.908 24.2264C140.42 23.9063 140.863 23.5641 141.237 23.1999C141.624 22.8246 141.925 22.4162 142.141 21.9747C142.357 21.5222 142.464 21.0255 142.464 20.4847C142.464 19.9549 142.39 19.4858 142.243 19.0774C142.106 18.658 141.914 18.3048 141.663 18.0178C141.425 17.7198 141.141 17.4935 140.812 17.339C140.493 17.1845 140.147 17.1072 139.772 17.1072C139.352 17.1072 138.965 17.2121 138.613 17.4218C138.261 17.6315 137.955 17.9074 137.693 18.2496C137.443 18.5807 137.245 18.956 137.097 19.3754C136.949 19.7838 136.875 20.1922 136.875 20.6006C136.875 21.2628 136.995 21.9913 137.233 22.786C137.483 23.5807 137.824 24.3699 138.256 25.1536ZM148.155 26.6436C148.019 27.4273 147.849 28.1282 147.644 28.7463C147.451 29.3644 147.213 29.9494 146.929 30.5012C146.656 31.042 146.332 31.5718 145.957 32.0905C145.594 32.6093 145.179 33.1558 144.714 33.7296C145.588 34.5907 146.412 35.275 147.184 35.7827C147.968 36.2793 148.689 36.5277 149.348 36.5277C150.2 36.5277 150.927 36.3676 151.529 36.0476C152.132 35.7165 152.614 35.137 152.978 34.3091L153.625 34.5411C153.478 35.2583 153.233 35.8931 152.893 36.445C152.563 36.9967 152.154 37.466 151.666 37.8522C151.177 38.2275 150.621 38.5089 149.996 38.6966C149.371 38.8953 148.695 38.9947 147.968 38.9947C147.037 38.9947 146.077 38.7408 145.088 38.2329C144.112 37.7142 143.152 37.0243 142.209 36.1634C141.095 37.0024 139.88 37.6867 138.562 38.2165C137.256 38.7352 135.842 38.9947 134.32 38.9947C133.252 38.9947 132.343 38.8788 131.593 38.6469C130.843 38.4152 130.23 38.0895 129.753 37.6702C129.276 37.2506 128.924 36.7486 128.696 36.1634C128.481 35.5785 128.373 34.9329 128.373 34.2265C128.373 33.222 128.566 32.3336 128.952 31.5607C129.35 30.7772 129.867 30.0763 130.503 29.4582C131.15 28.8401 131.883 28.2937 132.701 27.8191C133.519 27.3335 134.359 26.8864 135.223 26.4781C134.745 25.5068 134.365 24.6127 134.081 23.7959C133.808 22.9792 133.672 22.2893 133.672 21.7264C133.672 20.9979 133.791 20.2915 134.03 19.6072C134.28 18.9229 134.649 18.3158 135.137 17.786C135.637 17.2562 136.256 16.8313 136.995 16.5112C137.733 16.1911 138.591 16.031 139.568 16.031C140.295 16.031 140.976 16.1359 141.612 16.3456C142.26 16.5443 142.822 16.8423 143.299 17.2397C143.776 17.626 144.151 18.1061 144.424 18.68C144.708 19.243 144.85 19.8831 144.85 20.6006C144.85 21.318 144.674 21.9472 144.322 22.488C143.97 23.0288 143.509 23.5145 142.942 23.9449C142.373 24.3754 141.726 24.7672 140.999 25.1204C140.283 25.4736 139.556 25.8213 138.818 26.1635C139.409 27.2562 140.119 28.3434 140.948 29.4251C141.788 30.4957 142.691 31.5497 143.657 32.5874C144.782 31.3512 145.622 30.2087 146.179 29.1602C146.747 28.1116 147.122 27.1955 147.304 26.4118L148.155 26.6436Z" fill="black" fill-opacity="0.27"/>
<path d="M159.227 31.5326L158.889 31.4424L158.982 31.1142C159.135 30.5711 158.806 30.0081 158.247 29.859L150.769 27.8642C150.209 27.7151 149.63 28.0356 149.477 28.5787L149.384 28.907L149.046 28.8168C148.859 28.767 148.667 28.8735 148.615 29.055C148.564 29.2364 148.674 29.4236 148.861 29.4734L149.198 29.5635L149.106 29.8918C148.952 30.4349 149.282 30.9978 149.841 31.1471L157.319 33.1418C157.878 33.2908 158.458 32.9703 158.611 32.4274L158.704 32.0991L159.042 32.1893C159.228 32.239 159.338 32.4264 159.287 32.6075L158.73 34.5774C158.679 34.7585 158.486 34.8652 158.3 34.8155L154.223 33.7278C153.664 33.5788 153.084 33.8993 152.931 34.4425L153.606 34.6226C153.658 34.4415 153.851 34.3349 154.037 34.3846L158.114 35.4719C158.673 35.6212 159.252 35.3005 159.406 34.7575L159.962 32.7879C160.116 32.2449 159.786 31.6816 159.227 31.5326Z" fill="black" fill-opacity="0.27"/>
<path d="M147.259 26.5894L148.087 24.3414C148.105 24.2803 148.146 24.2322 148.201 24.2077L149.025 23.8394C149.151 23.4272 149.085 23.6464 149.276 23.0007C149.295 22.9371 149.287 22.8683 149.259 22.8086C149.161 22.6025 148.888 22.5954 148.828 22.8013L148.579 23.6413L147.705 23.2527C147.543 23.1806 147.485 22.9608 147.596 22.838L150.755 19.3145C150.887 19.1664 151.141 19.2797 151.165 19.498L151.729 24.6765C151.749 24.8573 151.59 24.9796 151.428 24.9077L149.66 24.1215L148.507 24.6364L148.107 26.9426L147.259 26.5894Z" fill="black" fill-opacity="0.27"/>
<path d="M10.1396 37.4294L10.9073 37.2598C11.6983 37.0564 12.2218 36.7738 12.4777 36.4122C12.7569 36.0279 12.8964 35.361 12.8964 34.4116V19.2212C12.8964 18.9499 12.8383 18.7691 12.722 18.6787C12.6056 18.5656 12.4312 18.5091 12.1985 18.5091H10.3839L10 17.3563C10.9073 17.0172 12.1054 16.7121 13.5944 16.4408C15.0833 16.1469 16.5141 16 17.8867 16C20.9809 16 23.2841 16.6781 24.7963 18.0344C26.3085 19.3907 27.0646 21.1426 27.0646 23.2901C27.0646 24.6237 26.7854 25.8331 26.2271 26.9181C25.692 28.0032 24.8545 28.8735 23.7145 29.529C22.5978 30.1619 21.2019 30.4784 19.5269 30.4784C18.7824 30.4784 18.131 30.388 17.5726 30.2071C17.0143 30.0037 16.7351 29.7324 16.7351 29.3934C16.7351 29.1899 16.77 29.0204 16.8398 28.8848C16.9329 28.7265 17.0608 28.6474 17.2237 28.6474C17.2935 28.6474 17.4679 28.6926 17.7471 28.783C18.0263 28.8508 18.3636 28.8848 18.7591 28.8848C20.3411 28.8848 21.5742 28.3875 22.4582 27.3928C23.3655 26.3982 23.8192 25.0758 23.8192 23.4257C23.8192 21.7529 23.3423 20.3853 22.3884 19.3229C21.4578 18.2379 20.1317 17.6954 18.4102 17.6954C16.8282 17.6954 16.0372 18.1814 16.0372 19.1534V32.3094C16.0372 33.5753 16.1419 34.5812 16.3512 35.3271C16.5606 36.0505 16.9329 36.7512 17.4679 37.4294L17.8867 37.9719L17.4679 38.4805H10.5235L10.1396 37.4294ZM36.3843 38.9213C34.9186 38.9213 33.639 38.5935 32.5456 37.938C31.4522 37.2825 30.603 36.367 29.9981 35.1915C29.3932 33.9934 29.0908 32.6146 29.0908 31.0548C29.0908 29.4273 29.4281 27.9919 30.1028 26.7486C30.7775 25.5053 31.7313 24.5446 32.9644 23.8665C34.2207 23.1883 35.6631 22.8493 37.2916 22.8493C39.0132 22.8493 40.3393 23.2901 41.2698 24.1716C42.2237 25.0532 42.7006 26.1157 42.7006 27.3589C42.7006 28.2179 42.4563 29.043 41.9678 29.8342C41.5025 30.6253 40.8046 31.2696 39.874 31.7669C38.9666 32.2642 37.8965 32.5128 36.6634 32.5128C35.9655 32.5128 35.2094 32.3998 34.3951 32.1738C33.5809 31.9251 33.1738 31.5634 33.1738 31.0887C33.1738 30.9079 33.2203 30.7497 33.3133 30.614C33.4064 30.4784 33.5111 30.4106 33.6274 30.4106C33.6972 30.4106 33.9066 30.4784 34.2556 30.614C34.6278 30.7271 35.1047 30.7836 35.6863 30.7836C36.9659 30.7836 37.9546 30.4445 38.6526 29.7663C39.3505 29.0882 39.6995 28.2744 39.6995 27.325C39.6995 26.5112 39.4203 25.8105 38.862 25.2228C38.3269 24.635 37.6057 24.3412 36.6983 24.3412C35.3257 24.3412 34.2556 24.9289 33.4878 26.1044C32.7434 27.2572 32.3711 28.9074 32.3711 31.0548C32.3711 32.8858 32.7666 34.3212 33.5576 35.361C34.3719 36.3783 35.5351 36.8869 37.0473 36.8869C38.9085 36.8869 40.444 36.2991 41.6537 35.1237C41.7235 35.0559 41.8166 35.022 41.9329 35.022C42.119 35.022 42.3051 35.1124 42.4912 35.2932C42.7006 35.4741 42.8053 35.6662 42.8053 35.8696C42.8053 35.9375 42.782 36.0053 42.7355 36.0731C42.689 36.1183 42.6657 36.1522 42.6657 36.1748C41.8747 37.079 40.9325 37.7685 39.8391 38.2432C38.7689 38.6953 37.6173 38.9213 36.3843 38.9213ZM44.3238 37.5311L45.0566 37.3277C45.7779 37.1242 46.2548 36.8417 46.4874 36.48C46.7433 36.1183 46.9411 35.5419 47.0807 34.7507L48.337 26.4095C48.3602 26.3191 48.3719 26.1835 48.3719 26.0026C48.3719 25.5505 48.2206 25.2002 47.9182 24.9515C47.639 24.7029 47.197 24.4994 46.5921 24.3412L45.9989 24.1377L46.278 23.2222H51.5824L56.119 32.5806L60.7254 23.2222H64.8432L65.3318 23.6291L64.913 24.1377C64.1685 25.1097 63.7963 26.0478 63.7963 26.952C63.7963 27.2233 63.8312 27.4946 63.901 27.7658L64.9828 32.9875C65.0293 33.1684 65.0759 33.417 65.1224 33.7335C65.4016 34.9315 65.6458 35.8244 65.8552 36.4122C66.0646 36.9773 66.4368 37.5198 66.9719 38.0397L66.623 38.4805H60.2368L59.8878 37.5311L60.516 37.3277C61.1209 37.1694 61.5629 36.9208 61.8421 36.5817C62.1213 36.2426 62.2608 35.7905 62.2608 35.2254C62.2608 34.9315 62.2259 34.6038 62.1562 34.2421L60.8999 26.5791L56.1539 36.4461H55.1768L50.3959 26.5791L49.2094 33.9708C49.1629 34.2873 49.1396 34.5134 49.1396 34.649C49.1396 35.5758 49.4886 36.5365 50.1865 37.5311L50.5704 38.0397L50.1516 38.4805H44.7077L44.3238 37.5311ZM77.0172 38.9213C74.6442 38.9213 72.7597 38.1979 71.3639 36.7512C69.968 35.2819 69.27 33.3153 69.27 30.8514C69.27 28.3874 69.968 26.4434 71.3639 25.0193C72.7597 23.5726 74.6442 22.8493 77.0172 22.8493C78.5759 22.8493 79.9369 23.177 81.1001 23.8326C82.2633 24.4881 83.159 25.4149 83.7872 26.613C84.4153 27.811 84.7294 29.2238 84.7294 30.8514C84.7294 32.4789 84.4037 33.903 83.7523 35.1237C83.1241 36.3444 82.2284 37.2825 81.0652 37.938C79.902 38.5935 78.5526 38.9213 77.0172 38.9213ZM76.9474 37.2598C78.2735 37.2598 79.3436 36.6834 80.1579 35.5306C80.9954 34.3551 81.4142 32.818 81.4142 30.9192C81.4142 29.9472 81.2746 28.9752 80.9954 28.0032C80.7162 27.0086 80.2509 26.1722 79.5995 25.494C78.9714 24.7933 78.1455 24.4429 77.1219 24.4429C75.7492 24.4429 74.6442 25.0306 73.8066 26.2061C72.9924 27.3815 72.5853 28.9413 72.5853 30.8853C72.5853 32.8293 72.9691 34.3777 73.7369 35.5306C74.5278 36.6834 75.598 37.2598 76.9474 37.2598ZM87.676 37.5311L88.339 37.3277C89.0602 37.1242 89.5372 36.8643 89.7698 36.5478C90.0257 36.2087 90.1537 35.6097 90.1537 34.7507V26.952C90.1537 26.0931 90.0257 25.494 89.7698 25.155C89.5372 24.8159 89.0602 24.5446 88.339 24.3412L87.676 24.1377L88.025 23.2222H94.3064L94.6903 23.6291L94.3064 24.1377C93.8411 24.7481 93.5038 25.4149 93.2944 26.1383C93.1083 26.839 93.0152 27.7658 93.0152 28.9187V29.902H100.623V26.952C100.623 26.0931 100.495 25.494 100.239 25.155C100.006 24.8159 99.5177 24.5446 98.7732 24.3412L98.0753 24.1377L98.4592 23.2222H104.741L105.159 23.6291L104.741 24.1377C104.275 24.7481 103.95 25.4036 103.763 26.1044C103.577 26.8051 103.484 27.7432 103.484 28.9187V34.9542C103.484 35.7679 103.601 36.333 103.833 36.6495C104.066 36.9434 104.531 37.192 105.229 37.3955L105.788 37.565L105.508 38.4805H98.4592L98.0753 37.5311L98.7732 37.3277C99.5177 37.1242 100.006 36.8643 100.239 36.5478C100.495 36.2087 100.623 35.6097 100.623 34.7507V31.6991H93.0152V34.9542C93.0152 35.7679 93.1316 36.333 93.3642 36.6495C93.6201 36.9434 94.097 37.192 94.795 37.3955L95.4231 37.565L95.109 38.4805H88.025L87.676 37.5311ZM111.979 38.0058L112.363 37.5311C112.851 36.9208 113.189 36.2652 113.375 35.5645C113.561 34.8637 113.654 33.9369 113.654 32.7841V27.1216C113.654 26.2626 113.584 25.6975 113.445 25.4262C113.328 25.155 113.061 25.0193 112.642 25.0193H112.328C111.607 25.0193 111.048 25.0871 110.653 25.2228C110.281 25.3584 109.978 25.5958 109.746 25.9348C109.536 26.2739 109.339 26.8051 109.152 27.5285L108.943 28.1388L107.966 27.8675V22.8154L108.454 22.4085L108.943 22.8154C109.222 23.0188 109.629 23.1657 110.164 23.2562C110.7 23.3466 111.409 23.3918 112.293 23.3918H117.912C118.796 23.3918 119.494 23.3466 120.005 23.2562C120.517 23.1657 120.913 23.0188 121.192 22.8154L121.68 22.4085L122.204 22.8154V27.8675L121.192 28.1388L121.052 27.5285C120.843 26.8051 120.622 26.2739 120.389 25.9348C120.18 25.5958 119.889 25.3584 119.517 25.2228C119.145 25.0871 118.609 25.0193 117.912 25.0193H117.493C117.097 25.0193 116.83 25.155 116.69 25.4262C116.574 25.6975 116.516 26.2626 116.516 27.1216V34.7507C116.516 35.6097 116.632 36.2087 116.865 36.5478C117.097 36.8643 117.586 37.1242 118.33 37.3277L119.063 37.5311L118.679 38.4805H112.363L111.979 38.0058Z" fill="black" fill-opacity="0.27"/>
</g>
<path d="M30.6128 50C28.3328 50 26.4135 49.5027 24.8548 48.5081C23.296 47.4909 22.1212 46.1233 21.3302 44.4053C20.5625 42.6873 20.1786 40.7433 20.1786 38.5733C20.1786 36.4032 20.5625 34.4479 21.3302 32.7073C22.1212 30.9667 23.296 29.5991 24.8548 28.6045C26.4135 27.5873 28.3328 27.0787 30.6128 27.0787C32.8927 27.0787 34.812 27.5873 36.3708 28.6045C37.9528 29.5991 39.1393 30.9667 39.9303 32.7073C40.7212 34.4479 41.1167 36.4032 41.1167 38.5733C41.1167 40.7433 40.7212 42.6873 39.9303 44.4053C39.1393 46.1233 37.9528 47.4909 36.3708 48.5081C34.812 49.5027 32.8927 50 30.6128 50ZM30.4732 48.2029C31.9621 48.2029 33.2417 47.7847 34.3118 46.9483C35.4053 46.0894 36.2428 44.9365 36.8244 43.4898C37.406 42.0431 37.6968 40.4382 37.6968 38.675C37.6968 37.1831 37.4758 35.6911 37.0338 34.1992C36.5918 32.6847 35.8589 31.4075 34.8353 30.3677C33.8117 29.3279 32.4739 28.808 30.8222 28.808C29.3332 28.808 28.042 29.2601 26.9486 30.1643C25.8552 31.0458 25.0176 32.2552 24.436 33.7923C23.8777 35.3069 23.5985 36.9909 23.5985 38.8445C23.5985 41.5571 24.1917 43.795 25.3782 45.5581C26.588 47.3213 28.2863 48.2029 30.4732 48.2029Z" fill="white"/>
<path d="M46.9682 42.4914L47.3521 42.0167C47.8406 41.4064 48.178 40.7509 48.3641 40.0501C48.5502 39.3494 48.6433 38.4226 48.6433 37.2697V31.6072C48.6433 30.7482 48.5735 30.1831 48.4339 29.9118C48.3176 29.6406 48.05 29.5049 47.6313 29.5049H47.3172C46.596 29.5049 46.0376 29.5728 45.6421 29.7084C45.2699 29.844 44.9675 30.0814 44.7348 30.4204C44.5254 30.7595 44.3277 31.2907 44.1416 32.0141L43.9322 32.6244L42.9551 32.3532V27.301L43.4436 26.8941L43.9322 27.301C44.2114 27.5044 44.6185 27.6513 45.1536 27.7418C45.6887 27.8322 46.3982 27.8774 47.2823 27.8774H52.9007C53.7848 27.8774 54.4827 27.8322 54.9945 27.7418C55.5063 27.6513 55.9018 27.5044 56.181 27.301L56.6696 26.8941L57.193 27.301V32.3532L56.181 32.6244L56.0414 32.0141C55.832 31.2907 55.611 30.7595 55.3784 30.4204C55.169 30.0814 54.8782 29.844 54.506 29.7084C54.1337 29.5728 53.5986 29.5049 52.9007 29.5049H52.4819C52.0864 29.5049 51.8189 29.6406 51.6793 29.9118C51.563 30.1831 51.5048 30.7482 51.5048 31.6072V39.2363C51.5048 40.0953 51.6212 40.6943 51.8538 41.0334C52.0864 41.3499 52.575 41.6098 53.3195 41.8133L54.0523 42.0167L53.6684 42.9661H47.3521L46.9682 42.4914ZM74.7239 47.8488C74.3051 46.063 73.7933 44.7971 73.1884 44.0512C72.5835 43.3278 71.653 42.9661 70.3967 42.9661H63.3126C62.4518 42.9661 61.7655 43.1357 61.2537 43.4747C60.7419 43.8138 60.3231 44.3111 59.9974 44.9667C59.6717 45.6448 59.3343 46.6055 58.9854 47.8488L58.776 48.4591L57.7989 48.0861V41.7794C59.1017 41.6437 60.0788 41.2143 60.7302 40.4909C61.3816 39.7675 61.8237 38.852 62.0563 37.7444C62.3122 36.6142 62.5565 34.9301 62.7891 32.6922L62.9636 31.1664C63.0334 30.8273 63.0683 30.5448 63.0683 30.3187C63.0683 29.8214 62.9171 29.4823 62.6147 29.3015C62.3355 29.1207 61.8004 28.9624 61.0094 28.8268L60.3115 28.6234L60.6604 27.7079H74.3051L74.689 28.1487L74.3051 28.6234C73.8166 29.2337 73.4792 29.8892 73.2931 30.59C73.1303 31.2681 73.0488 32.2062 73.0488 33.4043V39.9823C73.0488 40.57 73.3048 41.0221 73.8166 41.3386C74.3517 41.6324 75.038 41.7794 75.8755 41.7794V48.12L74.8984 48.493L74.7239 47.8488ZM68.3029 41.3725C69.0706 41.3725 69.5708 41.2369 69.8034 40.9656C70.0361 40.6943 70.1524 40.1179 70.1524 39.2363V31.5055C70.1524 30.6465 70.0361 30.0814 69.8034 29.8101C69.5708 29.5389 69.0706 29.4032 68.3029 29.4032H67.1164C66.5115 29.4032 66.0578 29.4823 65.7554 29.6406C65.4762 29.7762 65.3134 30.0701 65.2668 30.5222C64.9876 32.8957 64.7201 34.7719 64.4642 36.1508C64.2083 37.5071 63.8709 38.626 63.4522 39.5076C63.0334 40.3892 62.4867 41.0108 61.812 41.3725H68.3029ZM85.436 43.4069C83.9704 43.4069 82.6908 43.0792 81.5974 42.4236C80.5039 41.7681 79.6548 40.8526 79.0499 39.6771C78.445 38.4791 78.1426 37.1002 78.1426 35.5404C78.1426 33.9129 78.4799 32.4775 79.1546 31.2342C79.8293 29.9909 80.7831 29.0302 82.0161 28.3521C83.2724 27.674 84.7148 27.3349 86.3434 27.3349C88.0649 27.3349 89.391 27.7757 90.3216 28.6573C91.2755 29.5389 91.7524 30.6013 91.7524 31.8445C91.7524 32.7035 91.5081 33.5286 91.0196 34.3198C90.5543 35.1109 89.8563 35.7552 88.9257 36.2525C88.0184 36.7498 86.9482 36.9985 85.7152 36.9985C85.0173 36.9985 84.2612 36.8854 83.4469 36.6594C82.6326 36.4107 82.2255 36.049 82.2255 35.5743C82.2255 35.3935 82.272 35.2353 82.3651 35.0996C82.4582 34.964 82.5629 34.8962 82.6792 34.8962C82.749 34.8962 82.9584 34.964 83.3073 35.0996C83.6796 35.2127 84.1565 35.2692 84.7381 35.2692C86.0177 35.2692 87.0064 34.9301 87.7043 34.252C88.4023 33.5738 88.7512 32.76 88.7512 31.8106C88.7512 30.9969 88.4721 30.2961 87.9137 29.7084C87.3786 29.1207 86.6574 28.8268 85.7501 28.8268C84.3775 28.8268 83.3073 29.4145 82.5396 30.59C81.7951 31.7428 81.4229 33.393 81.4229 35.5404C81.4229 37.3714 81.8184 38.8068 82.6094 39.8467C83.4236 40.8639 84.5869 41.3725 86.0991 41.3725C87.9602 41.3725 89.4957 40.7848 90.7055 39.6093C90.7753 39.5415 90.8683 39.5076 90.9846 39.5076C91.1708 39.5076 91.3569 39.598 91.543 39.7788C91.7524 39.9597 91.8571 40.1518 91.8571 40.3553C91.8571 40.4231 91.8338 40.4909 91.7873 40.5587C91.7408 40.6039 91.7175 40.6378 91.7175 40.6604C90.9265 41.5646 89.9843 42.2541 88.8908 42.7288C87.8207 43.1809 86.6691 43.4069 85.436 43.4069ZM95.8884 43.4069C95.0509 43.4069 94.3762 43.1583 93.8644 42.661C93.3523 42.1411 93.0964 41.4629 93.0964 40.6265C93.0964 40.0388 93.236 39.5754 93.5154 39.2363C93.7946 38.8973 94.1668 38.7277 94.6321 38.7277C95.0509 38.7277 95.2952 39.0442 95.3649 39.6771C95.4115 39.9936 95.5162 40.2762 95.679 40.5248C95.8651 40.7509 96.1327 40.8639 96.4816 40.8639C98.2265 40.8639 99.3548 37.6314 99.8666 31.1664L99.9015 30.59C99.9015 29.9796 99.762 29.5615 99.4828 29.3354C99.2036 29.1094 98.6453 28.9398 97.8077 28.8268L97.1447 28.6234L97.4937 27.7079H110.091L110.51 28.1487L110.091 28.6573C109.603 29.2902 109.254 29.957 109.045 30.6578C108.858 31.3585 108.765 32.274 108.765 33.4043V39.4398C108.765 40.2309 108.893 40.7848 109.149 41.1012C109.405 41.4177 109.882 41.6777 110.58 41.8811L111.173 42.0167L110.859 42.9661H103.74L103.391 42.0167L104.054 41.8133C104.799 41.6098 105.299 41.3386 105.555 40.9995C105.811 40.6604 105.939 40.0501 105.939 39.1685V31.4716C105.939 30.59 105.811 30.0136 105.555 29.7423C105.322 29.471 104.822 29.3354 104.054 29.3354H103.496C102.891 29.3354 102.437 29.4145 102.135 29.5728C101.856 29.7084 101.705 30.0023 101.681 30.4543C101.379 33.9807 100.925 36.6933 100.32 38.5921C99.7387 40.4909 99.0757 41.7681 98.3312 42.4236C97.61 43.0792 96.7957 43.4069 95.8884 43.4069ZM114.236 42.0167L114.864 41.8133C115.608 41.6098 116.097 41.3499 116.33 41.0334C116.585 40.6943 116.713 40.0953 116.713 39.2363V31.4377C116.713 30.5787 116.585 29.9796 116.33 29.6406C116.097 29.3015 115.608 29.0302 114.864 28.8268L114.236 28.6234L114.55 27.7079H120.831L121.215 28.1147L120.831 28.6234C120.366 29.2789 120.029 29.957 119.819 30.6578C119.633 31.3585 119.54 32.274 119.54 33.4043V39.4398C119.54 40.2535 119.656 40.8074 119.889 41.1012C120.122 41.3951 120.599 41.655 121.32 41.8811L121.948 42.0506L121.634 42.9661H114.55L114.236 42.0167ZM128.404 43.4069C127.543 43.4069 126.822 43.1809 126.24 42.7288C125.682 42.2767 125.112 41.5759 124.53 40.6265L122.332 37.0663C122.169 36.795 121.971 36.5803 121.739 36.422C121.506 36.2638 121.262 36.1395 121.006 36.049C120.773 35.936 120.622 35.8569 120.552 35.8117C120.459 35.7665 120.412 35.6422 120.412 35.4387C120.412 35.0318 120.587 34.8284 120.936 34.8284H121.529L124.356 31.4716C124.798 30.9743 125.019 30.3865 125.019 29.7084C125.019 29.3467 124.937 28.9963 124.775 28.6573L124.53 28.1487L125.054 27.7079H130.184L130.533 28.6573L129.904 28.8268C129.439 28.9624 129.02 29.1546 128.648 29.4032C128.299 29.6293 127.95 29.957 127.601 30.3865L123.623 35.2014C124.67 35.6987 125.438 36.3316 125.926 37.1002L128.369 40.9656C128.555 41.2595 128.718 41.4742 128.858 41.6098C129.02 41.7455 129.206 41.8133 129.416 41.8133C129.835 41.8133 130.23 41.6777 130.602 41.4064L131.091 42.2541C130.323 43.0226 129.428 43.4069 128.404 43.4069ZM138.392 43.4069C137.368 43.4069 136.415 43.1244 135.531 42.5592C134.67 41.9715 133.972 41.1238 133.437 40.0162C132.925 38.886 132.669 37.5184 132.669 35.9134C132.669 33.2687 133.402 31.1777 134.868 29.6406C136.356 28.1034 138.357 27.3349 140.87 27.3349C141.707 27.3349 142.847 27.4592 144.29 27.7079C145.36 27.8887 146.325 28.013 147.186 28.0808L147.605 28.4538L147.151 29.0302C146.988 29.3015 146.872 29.5162 146.802 29.6745C146.756 29.8101 146.733 30.0023 146.733 30.2509V40.2535C146.733 40.8865 147.07 41.2029 147.745 41.2029C148.256 41.2029 148.78 41.0221 149.315 40.6604L149.908 41.4403C149.35 42.0506 148.757 42.5366 148.128 42.8983C147.5 43.2374 146.93 43.4069 146.418 43.4069C145.534 43.4069 144.895 43.1583 144.499 42.661C144.104 42.1411 143.906 41.3047 143.906 40.1518C143.068 41.3499 142.196 42.1976 141.289 42.6949C140.405 43.1696 139.439 43.4069 138.392 43.4069ZM139.614 40.9995C141.382 40.9995 142.812 40.0727 143.906 38.2191V29.9118C142.999 29.3241 141.975 29.0302 140.835 29.0302C139.323 29.0302 138.136 29.5841 137.275 30.6917C136.438 31.7767 136.019 33.3252 136.019 35.337C136.019 37.281 136.356 38.7164 137.031 39.6432C137.729 40.5474 138.59 40.9995 139.614 40.9995Z" fill="white"/>
<path d="M135.802 11.5873C135.234 11.9074 134.706 12.2606 134.217 12.6469C133.74 13.0332 133.325 13.4471 132.973 13.8886C132.621 14.3191 132.343 14.7772 132.139 15.2629C131.945 15.7484 131.849 16.2561 131.849 16.7859C131.849 17.3821 131.945 17.9394 132.139 18.4582C132.343 18.9769 132.627 19.4295 132.99 19.8159C133.354 20.191 133.797 20.4891 134.32 20.7099C134.853 20.9306 135.45 21.041 136.109 21.041C137.006 21.041 137.858 20.8477 138.664 20.4615C139.482 20.0751 140.261 19.6007 140.999 19.0377C140.488 18.4968 139.994 17.923 139.517 17.3157C139.051 16.7086 138.602 16.0905 138.17 15.4616C137.739 14.8213 137.324 14.1756 136.926 13.5244C136.54 12.8622 136.165 12.2165 135.802 11.5873ZM138.256 9.15355C138.846 8.85554 139.397 8.54649 139.908 8.2264C140.42 7.90633 140.863 7.56415 141.237 7.19993C141.624 6.82464 141.925 6.41625 142.141 5.97475C142.357 5.52223 142.464 5.02553 142.464 4.48469C142.464 3.95489 142.39 3.48579 142.243 3.07742C142.106 2.65798 141.914 2.30478 141.663 2.01782C141.425 1.71979 141.141 1.49353 140.812 1.33899C140.493 1.18448 140.147 1.10722 139.772 1.10722C139.352 1.10722 138.965 1.21208 138.613 1.42178C138.261 1.63149 137.955 1.90743 137.693 2.24959C137.443 2.58073 137.245 2.95599 137.097 3.37543C136.949 3.78382 136.875 4.19219 136.875 4.60059C136.875 5.26284 136.995 5.99133 137.233 6.78603C137.483 7.58073 137.824 8.36989 138.256 9.15355ZM148.155 10.6436C148.019 11.4273 147.849 12.1282 147.644 12.7463C147.451 13.3644 147.213 13.9494 146.929 14.5012C146.656 15.042 146.332 15.5718 145.957 16.0905C145.594 16.6093 145.179 17.1558 144.714 17.7296C145.588 18.5907 146.412 19.275 147.184 19.7827C147.968 20.2793 148.689 20.5277 149.348 20.5277C150.2 20.5277 150.927 20.3676 151.529 20.0476C152.132 19.7165 152.614 19.137 152.978 18.3091L153.625 18.5411C153.478 19.2583 153.233 19.8931 152.893 20.445C152.563 20.9967 152.154 21.466 151.666 21.8522C151.177 22.2275 150.621 22.5089 149.996 22.6966C149.371 22.8953 148.695 22.9947 147.968 22.9947C147.037 22.9947 146.077 22.7408 145.088 22.2329C144.112 21.7142 143.152 21.0243 142.209 20.1634C141.095 21.0024 139.88 21.6867 138.562 22.2165C137.256 22.7352 135.842 22.9947 134.32 22.9947C133.252 22.9947 132.343 22.8788 131.593 22.6469C130.843 22.4152 130.23 22.0895 129.753 21.6702C129.276 21.2506 128.924 20.7486 128.696 20.1634C128.481 19.5785 128.373 18.9329 128.373 18.2265C128.373 17.222 128.566 16.3336 128.952 15.5607C129.35 14.7772 129.867 14.0763 130.503 13.4582C131.15 12.8401 131.883 12.2937 132.701 11.8191C133.519 11.3335 134.359 10.8864 135.223 10.4781C134.745 9.50675 134.365 8.61273 134.081 7.79594C133.808 6.97918 133.672 6.28933 133.672 5.72642C133.672 4.99794 133.791 4.29154 134.03 3.60722C134.28 2.92288 134.649 2.31583 135.137 1.78603C135.637 1.25623 136.256 0.831279 136.995 0.511185C137.733 0.191091 138.591 0.031044 139.568 0.031044C140.295 0.031044 140.976 0.135921 141.612 0.345627C142.26 0.544291 142.822 0.842322 143.299 1.23967C143.776 1.62598 144.151 2.1061 144.424 2.68005C144.708 3.24298 144.85 3.88314 144.85 4.60059C144.85 5.31803 144.674 5.94715 144.322 6.488C143.97 7.02884 143.509 7.51449 142.942 7.94495C142.373 8.37543 141.726 8.76724 140.999 9.12044C140.283 9.47364 139.556 9.82134 138.818 10.1635C139.409 11.2562 140.119 12.3434 140.948 13.4251C141.788 14.4957 142.691 15.5497 143.657 16.5874C144.782 15.3512 145.622 14.2087 146.179 13.1602C146.747 12.1116 147.122 11.1955 147.304 10.4118L148.155 10.6436Z" fill="white"/>
<path d="M159.227 15.5326L158.889 15.4424L158.982 15.1142C159.135 14.5711 158.806 14.0081 158.247 13.859L150.769 11.8642C150.209 11.7151 149.63 12.0356 149.477 12.5787L149.384 12.907L149.046 12.8168C148.859 12.767 148.667 12.8735 148.615 13.055C148.564 13.2364 148.674 13.4236 148.861 13.4734L149.198 13.5635L149.106 13.8918C148.952 14.4349 149.282 14.9978 149.841 15.1471L157.319 17.1418C157.878 17.2908 158.458 16.9703 158.611 16.4274L158.704 16.0991L159.042 16.1893C159.228 16.239 159.338 16.4264 159.287 16.6075L158.73 18.5774C158.679 18.7585 158.486 18.8652 158.3 18.8155L154.223 17.7278C153.664 17.5788 153.084 17.8993 152.931 18.4425L153.606 18.6226C153.658 18.4415 153.851 18.3349 154.037 18.3846L158.114 19.4719C158.673 19.6212 159.252 19.3005 159.406 18.7575L159.962 16.7879C160.116 16.2449 159.786 15.6816 159.227 15.5326Z" fill="white"/>
<path d="M147.259 10.5894L148.087 8.34144C148.105 8.28033 148.146 8.23223 148.201 8.20771L149.025 7.83942C149.151 7.42723 149.085 7.64641 149.276 7.00073C149.295 6.93711 149.287 6.86833 149.259 6.80859C149.161 6.60246 148.888 6.59542 148.828 6.80127L148.579 7.64134L147.705 7.25271C147.543 7.18056 147.485 6.96084 147.596 6.83798L150.755 3.3145C150.887 3.16639 151.141 3.27969 151.165 3.49804L151.729 8.67653C151.749 8.85727 151.59 8.97957 151.428 8.90771L149.66 8.12151L148.507 8.63636L148.107 10.9426L147.259 10.5894Z" fill="white"/>
<path d="M10.1396 21.4294L10.9073 21.2598C11.6983 21.0564 12.2218 20.7738 12.4777 20.4122C12.7569 20.0279 12.8964 19.361 12.8964 18.4116V3.22119C12.8964 2.94993 12.8383 2.76909 12.722 2.67867C12.6056 2.56565 12.4312 2.50914 12.1985 2.50914H10.3839L10 1.35629C10.9073 1.01722 12.1054 0.712053 13.5944 0.440795C15.0833 0.146932 16.5141 0 17.8867 0C20.9809 0 23.2841 0.678145 24.7963 2.03444C26.3085 3.39073 27.0646 5.1426 27.0646 7.29006C27.0646 8.62374 26.7854 9.8331 26.2271 10.9181C25.692 12.0032 24.8545 12.8735 23.7145 13.529C22.5978 14.1619 21.2019 14.4784 19.5269 14.4784C18.7824 14.4784 18.131 14.388 17.5726 14.2071C17.0143 14.0037 16.7351 13.7324 16.7351 13.3934C16.7351 13.1899 16.77 13.0204 16.8398 12.8848C16.9329 12.7265 17.0608 12.6474 17.2237 12.6474C17.2935 12.6474 17.4679 12.6926 17.7471 12.783C18.0263 12.8508 18.3636 12.8848 18.7591 12.8848C20.3411 12.8848 21.5742 12.3875 22.4582 11.3928C23.3655 10.3982 23.8192 9.07584 23.8192 7.42569C23.8192 5.75293 23.3423 4.38534 22.3884 3.32291C21.4578 2.23788 20.1317 1.69536 18.4102 1.69536C16.8282 1.69536 16.0372 2.18137 16.0372 3.15337V16.3094C16.0372 17.5753 16.1419 18.5812 16.3512 19.3271C16.5606 20.0505 16.9329 20.7512 17.4679 21.4294L17.8867 21.9719L17.4679 22.4805H10.5235L10.1396 21.4294ZM36.3843 22.9213C34.9186 22.9213 33.639 22.5935 32.5456 21.938C31.4522 21.2825 30.603 20.367 29.9981 19.1915C29.3932 17.9934 29.0908 16.6146 29.0908 15.0548C29.0908 13.4273 29.4281 11.9919 30.1028 10.7486C30.7775 9.50533 31.7313 8.54463 32.9644 7.86648C34.2207 7.18834 35.6631 6.84926 37.2916 6.84926C39.0132 6.84926 40.3393 7.29006 41.2698 8.17165C42.2237 9.05324 42.7006 10.1157 42.7006 11.3589C42.7006 12.2179 42.4563 13.043 41.9678 13.8342C41.5025 14.6253 40.8046 15.2696 39.874 15.7669C38.9666 16.2642 37.8965 16.5128 36.6634 16.5128C35.9655 16.5128 35.2094 16.3998 34.3951 16.1738C33.5809 15.9251 33.1738 15.5634 33.1738 15.0887C33.1738 14.9079 33.2203 14.7497 33.3133 14.614C33.4064 14.4784 33.5111 14.4106 33.6274 14.4106C33.6972 14.4106 33.9066 14.4784 34.2556 14.614C34.6278 14.7271 35.1047 14.7836 35.6863 14.7836C36.9659 14.7836 37.9546 14.4445 38.6526 13.7663C39.3505 13.0882 39.6995 12.2744 39.6995 11.325C39.6995 10.5112 39.4203 9.8105 38.862 9.22277C38.3269 8.63505 37.6057 8.34118 36.6983 8.34118C35.3257 8.34118 34.2556 8.92891 33.4878 10.1044C32.7434 11.2572 32.3711 12.9074 32.3711 15.0548C32.3711 16.8858 32.7666 18.3212 33.5576 19.361C34.3719 20.3783 35.5351 20.8869 37.0473 20.8869C38.9085 20.8869 40.444 20.2991 41.6537 19.1237C41.7235 19.0559 41.8166 19.022 41.9329 19.022C42.119 19.022 42.3051 19.1124 42.4912 19.2932C42.7006 19.4741 42.8053 19.6662 42.8053 19.8696C42.8053 19.9375 42.782 20.0053 42.7355 20.0731C42.689 20.1183 42.6657 20.1522 42.6657 20.1748C41.8747 21.079 40.9325 21.7685 39.8391 22.2432C38.7689 22.6953 37.6173 22.9213 36.3843 22.9213ZM44.3238 21.5311L45.0566 21.3277C45.7779 21.1242 46.2548 20.8417 46.4874 20.48C46.7433 20.1183 46.9411 19.5419 47.0807 18.7507L48.337 10.4095C48.3602 10.3191 48.3719 10.1835 48.3719 10.0026C48.3719 9.55054 48.2206 9.20017 47.9182 8.95151C47.639 8.70286 47.197 8.49942 46.5921 8.34118L45.9989 8.13774L46.278 7.22224H51.5824L56.119 16.5806L60.7254 7.22224H64.8432L65.3318 7.62913L64.913 8.13774C64.1685 9.10975 63.7963 10.0478 63.7963 10.952C63.7963 11.2233 63.8312 11.4946 63.901 11.7658L64.9828 16.9875C65.0293 17.1684 65.0759 17.417 65.1224 17.7335C65.4016 18.9315 65.6458 19.8244 65.8552 20.4122C66.0646 20.9773 66.4368 21.5198 66.9719 22.0397L66.623 22.4805H60.2368L59.8878 21.5311L60.516 21.3277C61.1209 21.1694 61.5629 20.9208 61.8421 20.5817C62.1213 20.2426 62.2608 19.7905 62.2608 19.2254C62.2608 18.9315 62.2259 18.6038 62.1562 18.2421L60.8999 10.5791L56.1539 20.4461H55.1768L50.3959 10.5791L49.2094 17.9708C49.1629 18.2873 49.1396 18.5134 49.1396 18.649C49.1396 19.5758 49.4886 20.5365 50.1865 21.5311L50.5704 22.0397L50.1516 22.4805H44.7077L44.3238 21.5311ZM77.0172 22.9213C74.6442 22.9213 72.7597 22.1979 71.3639 20.7512C69.968 19.2819 69.27 17.3153 69.27 14.8514C69.27 12.3874 69.968 10.4434 71.3639 9.01933C72.7597 7.57262 74.6442 6.84926 77.0172 6.84926C78.5759 6.84926 79.9369 7.17704 81.1001 7.83258C82.2633 8.48812 83.159 9.41491 83.7872 10.613C84.4153 11.811 84.7294 13.2238 84.7294 14.8514C84.7294 16.4789 84.4037 17.903 83.7523 19.1237C83.1241 20.3444 82.2284 21.2825 81.0652 21.938C79.902 22.5935 78.5526 22.9213 77.0172 22.9213ZM76.9474 21.2598C78.2735 21.2598 79.3436 20.6834 80.1579 19.5306C80.9954 18.3551 81.4142 16.818 81.4142 14.9192C81.4142 13.9472 81.2746 12.9752 80.9954 12.0032C80.7162 11.0086 80.2509 10.1722 79.5995 9.49403C78.9714 8.79328 78.1455 8.44291 77.1219 8.44291C75.7492 8.44291 74.6442 9.03063 73.8066 10.2061C72.9924 11.3815 72.5853 12.9413 72.5853 14.8853C72.5853 16.8293 72.9691 18.3777 73.7369 19.5306C74.5278 20.6834 75.598 21.2598 76.9474 21.2598ZM87.676 21.5311L88.339 21.3277C89.0602 21.1242 89.5372 20.8643 89.7698 20.5478C90.0257 20.2087 90.1537 19.6097 90.1537 18.7507V10.952C90.1537 10.0931 90.0257 9.49403 89.7698 9.15496C89.5372 8.81588 89.0602 8.54463 88.339 8.34118L87.676 8.13774L88.025 7.22224H94.3064L94.6903 7.62913L94.3064 8.13774C93.8411 8.74807 93.5038 9.41491 93.2944 10.1383C93.1083 10.839 93.0152 11.7658 93.0152 12.9187V13.902H100.623V10.952C100.623 10.0931 100.495 9.49403 100.239 9.15496C100.006 8.81588 99.5177 8.54463 98.7732 8.34118L98.0753 8.13774L98.4592 7.22224H104.741L105.159 7.62913L104.741 8.13774C104.275 8.74807 103.95 9.40361 103.763 10.1044C103.577 10.8051 103.484 11.7432 103.484 12.9187V18.9542C103.484 19.7679 103.601 20.333 103.833 20.6495C104.066 20.9434 104.531 21.192 105.229 21.3955L105.788 21.565L105.508 22.4805H98.4592L98.0753 21.5311L98.7732 21.3277C99.5177 21.1242 100.006 20.8643 100.239 20.5478C100.495 20.2087 100.623 19.6097 100.623 18.7507V15.6991H93.0152V18.9542C93.0152 19.7679 93.1316 20.333 93.3642 20.6495C93.6201 20.9434 94.097 21.192 94.795 21.3955L95.4231 21.565L95.109 22.4805H88.025L87.676 21.5311ZM111.979 22.0058L112.363 21.5311C112.851 20.9208 113.189 20.2652 113.375 19.5645C113.561 18.8637 113.654 17.9369 113.654 16.7841V11.1216C113.654 10.2626 113.584 9.69747 113.445 9.42622C113.328 9.15496 113.061 9.01933 112.642 9.01933H112.328C111.607 9.01933 111.048 9.08714 110.653 9.22277C110.281 9.3584 109.978 9.59575 109.746 9.93482C109.536 10.2739 109.339 10.8051 109.152 11.5285L108.943 12.1388L107.966 11.8675V6.81536L108.454 6.40847L108.943 6.81536C109.222 7.0188 109.629 7.16573 110.164 7.25615C110.7 7.34657 111.409 7.39178 112.293 7.39178H117.912C118.796 7.39178 119.494 7.34657 120.005 7.25615C120.517 7.16573 120.913 7.0188 121.192 6.81536L121.68 6.40847L122.204 6.81536V11.8675L121.192 12.1388L121.052 11.5285C120.843 10.8051 120.622 10.2739 120.389 9.93482C120.18 9.59575 119.889 9.3584 119.517 9.22277C119.145 9.08714 118.609 9.01933 117.912 9.01933H117.493C117.097 9.01933 116.83 9.15496 116.69 9.42622C116.574 9.69747 116.516 10.2626 116.516 11.1216V18.7507C116.516 19.6097 116.632 20.2087 116.865 20.5478C117.097 20.8643 117.586 21.1242 118.33 21.3277L119.063 21.5311L118.679 22.4805H112.363L111.979 22.0058Z" fill="white"/>
<defs>
<filter id="filter0_f" x="0" y="6" width="170" height="70" filterUnits="userSpaceOnUse" color-interpolation-filters="sRGB">
<feFlood flood-opacity="0" result="BackgroundImageFix"/>
<feBlend mode="normal" in="SourceGraphic" in2="BackgroundImageFix" result="shape"/>
<feGaussianBlur stdDeviation="5" result="effect1_foregroundBlur"/>
</filter>
</defs>
</svg>
