<svg width="18" height="18" viewBox="0 0 18 18" fill="none" xmlns="http://www.w3.org/2000/svg">
<g clip-path="url(#clip0)">
<path d="M14.2734 1.08984H12.1641H10.0547C8.01946 1.08984 6.32812 2.74602 6.32812 4.78125C6.32812 6.63778 7.74088 8.17861 9.52734 8.43507V10.0547C9.52734 10.2679 9.65556 10.4605 9.85282 10.5418C10.0473 10.623 10.2755 10.5795 10.4276 10.4275L12.1641 8.69101L12.3824 8.47266H14.2734C16.3087 8.47266 18 6.81648 18 4.78125C18 2.74602 16.3087 1.08984 14.2734 1.08984Z" fill="#FED843"/>
<path d="M14.2734 8.47266C16.3087 8.47266 18 6.81648 18 4.78125C18 2.74602 16.3087 1.08984 14.2734 1.08984H12.1641V8.69101L12.3824 8.47266H14.2734Z" fill="#FABE2C"/>
<path d="M13.4297 13.2188V15.3281C13.4297 16.2457 12.6805 16.9102 11.855 16.9102C8.81719 16.9102 5.85352 15.474 3.64922 13.2785C1.44492 11.083 0 8.12812 0 5.09027C0 4.2177 0.709805 3.51562 1.58203 3.51562H3.69141C3.91852 3.51562 4.11996 3.66082 4.19133 3.87598L5.24602 7.03266C5.2977 7.18734 5.27484 7.3568 5.18484 7.49215L4.29047 8.83406C4.62937 9.54492 5.22914 10.3219 5.92172 11.006C6.61465 11.6898 7.40039 12.2808 8.11125 12.6197L9.45317 11.7253C9.58922 11.6357 9.75797 11.6121 9.91266 11.6641L13.0767 12.7188C13.2919 12.7902 13.4297 12.9916 13.4297 13.2188Z" fill="#FF641A"/>
<path d="M13.4296 13.2186V15.328C13.4296 16.2455 12.6805 16.91 11.855 16.91C8.81714 16.91 5.85347 15.4739 3.64917 13.2784L5.92167 11.0059C6.6146 11.6896 7.40034 12.2806 8.1112 12.6195L9.45312 11.7252C9.58917 11.6355 9.75792 11.612 9.91261 11.664L13.0767 12.7187C13.2918 12.79 13.4296 12.9915 13.4296 13.2186Z" fill="#F03800"/>
<path d="M10.0546 5.30859C10.3458 5.30859 10.5819 5.07249 10.5819 4.78125C10.5819 4.49 10.3458 4.25391 10.0546 4.25391C9.76332 4.25391 9.52722 4.49 9.52722 4.78125C9.52722 5.07249 9.76332 5.30859 10.0546 5.30859Z" fill="#613D5C"/>
<path d="M12.1641 5.30859C12.4553 5.30859 12.6914 5.07249 12.6914 4.78125C12.6914 4.49001 12.4553 4.25391 12.1641 4.25391C11.8728 4.25391 11.6367 4.49001 11.6367 4.78125C11.6367 5.07249 11.8728 5.30859 12.1641 5.30859Z" fill="#613D5C"/>
<path d="M12.6914 4.78125C12.6914 4.49002 12.4553 4.25391 12.1641 4.25391V5.30859C12.4553 5.30859 12.6914 5.07248 12.6914 4.78125Z" fill="#4B2746"/>
<path d="M14.2733 5.30859C14.5646 5.30859 14.8007 5.07249 14.8007 4.78125C14.8007 4.49 14.5646 4.25391 14.2733 4.25391C13.9821 4.25391 13.746 4.49 13.746 4.78125C13.746 5.07249 13.9821 5.30859 14.2733 5.30859Z" fill="#4B2746"/>
</g>
<defs>
<clipPath id="clip0">
<rect width="18" height="18" fill="white"/>
</clipPath>
</defs>
</svg>
