<svg width="32" height="32" viewBox="0 0 32 32" fill="none" xmlns="http://www.w3.org/2000/svg">
<path d="M16 32C24.8366 32 32 24.8366 32 16C32 7.16344 24.8366 0 16 0C7.16344 0 0 7.16344 0 16C0 24.8366 7.16344 32 16 32Z" fill="#6F3FAA"/>
<path d="M22.9413 8.77769C19.0468 7.83706 15.1454 6.73681 11.1515 8.13469C8.56562 9.10438 8.56563 11.9058 8.67338 14.2761C8.67338 14.9226 7.91919 15.7846 8.24238 16.5388C8.88881 18.6936 9.42756 20.8485 11.6902 21.9259C12.0134 22.1414 11.6902 22.5724 11.9057 22.8956C11.7979 22.8956 11.5824 23.0034 11.5824 23.1111C11.5824 23.6276 11.8142 24.4175 11.6602 24.9268L18.5356 31.7993C25.6038 30.6736 31.128 24.92 31.9053 17.7417L22.9413 8.77769Z" fill="#63389F"/>
<path d="M24.4642 11.2453L24.4589 11.2241C24.0314 9.49581 22.104 7.64131 20.334 7.2555L20.3141 7.25138C17.4512 6.70525 14.5484 6.70525 11.6862 7.25138L11.6656 7.2555C9.89621 7.64131 7.96878 9.49594 7.54071 11.2241L7.53596 11.2453C7.00746 13.6588 7.00746 16.1066 7.53596 18.5201L7.54071 18.5413C7.95059 20.1958 9.7344 21.9651 11.4383 22.4517V24.3809C11.4383 25.0793 12.2893 25.4222 12.7732 24.9183L14.7278 22.8864C15.1518 22.9101 15.576 22.9234 16.0001 22.9234C17.4412 22.9234 18.8829 22.7871 20.314 22.5141L20.334 22.5099C22.104 22.1241 24.0313 20.2695 24.4588 18.5413L24.4641 18.5202C24.9926 16.1066 24.9926 13.6589 24.4642 11.2453ZM22.9172 18.1702C22.6318 19.2978 21.1684 20.6995 20.0057 20.9585C18.4835 21.248 16.9492 21.3717 15.4164 21.3293C15.3859 21.3284 15.3566 21.3403 15.3354 21.3621C15.1178 21.5854 13.9082 22.8273 13.9082 22.8273L12.3902 24.3853C12.2792 24.501 12.0842 24.4222 12.0842 24.2625V21.0665C12.0842 21.0137 12.0465 20.9689 11.9947 20.9586C11.9943 20.9585 11.9941 20.9585 11.9938 20.9584C10.831 20.6994 9.36815 19.2977 9.08221 18.1701C8.60653 15.9885 8.60653 13.7769 9.08221 11.5953C9.36815 10.4677 10.831 9.06594 11.9938 8.80694C14.6523 8.30131 17.3478 8.30131 20.0057 8.80694C21.169 9.06594 22.6318 10.4677 22.9173 11.5953C23.3935 13.7769 23.3935 15.9886 22.9172 18.1702Z" fill="white"/>
<path d="M18.5293 19.6454C18.3506 19.5911 18.1803 19.5547 18.022 19.4891C16.3825 18.8089 14.8738 17.9314 13.6787 16.5864C12.9991 15.8215 12.4672 14.9579 12.0175 14.0441C11.8043 13.6107 11.6246 13.1604 11.4414 12.7129C11.2744 12.3049 11.5204 11.8834 11.7794 11.5759C12.0225 11.2873 12.3353 11.0666 12.674 10.9038C12.9384 10.7768 13.1992 10.85 13.3923 11.0741C13.8097 11.5586 14.1932 12.0678 14.5035 12.6294C14.6945 12.9749 14.6421 13.3971 14.296 13.6322C14.2119 13.6893 14.1353 13.7564 14.057 13.8209C13.9882 13.8775 13.9236 13.9346 13.8765 14.0112C13.7904 14.1513 13.7863 14.3166 13.8417 14.4689C14.2683 15.6414 14.9875 16.5533 16.1678 17.0445C16.3567 17.1231 16.5463 17.2145 16.764 17.1892C17.1283 17.1466 17.2463 16.7469 17.5017 16.5381C17.7513 16.334 18.0703 16.3313 18.3391 16.5014C18.608 16.6717 18.8687 16.8543 19.1278 17.039C19.3822 17.2203 19.6353 17.3974 19.8699 17.6041C20.0955 17.8028 20.1732 18.0634 20.0462 18.333C19.8137 18.8268 19.4752 19.2375 18.9872 19.4998C18.8493 19.5736 18.6847 19.5976 18.5293 19.6454C18.3506 19.5911 18.6847 19.5976 18.5293 19.6454Z" fill="white"/>
<path d="M16.0044 10.3391C18.1487 10.3993 19.91 11.8223 20.2875 13.9423C20.3518 14.3036 20.3747 14.6728 20.4033 15.0395C20.4154 15.1937 20.328 15.3402 20.1616 15.3422C19.9897 15.3443 19.9124 15.2004 19.9012 15.0464C19.8791 14.7413 19.8638 14.4347 19.8217 14.1322C19.5998 12.5348 18.326 11.2132 16.7361 10.9296C16.4967 10.8869 16.252 10.8758 16.0096 10.8503C15.8564 10.8343 15.6557 10.825 15.6218 10.6345C15.5934 10.4748 15.7281 10.3477 15.8802 10.3395C15.9214 10.3371 15.9629 10.339 16.0044 10.3391C18.1489 10.3993 15.9629 10.339 16.0044 10.3391Z" fill="white"/>
<path d="M19.2632 14.5637C19.2597 14.5905 19.2578 14.6534 19.2421 14.7127C19.1852 14.9279 18.8587 14.9549 18.7837 14.7377C18.7613 14.6732 18.758 14.5999 18.7579 14.5305C18.7572 14.0764 18.6585 13.6226 18.4294 13.2274C18.194 12.8213 17.8342 12.4799 17.4124 12.2732C17.1573 12.1484 16.8815 12.0707 16.6018 12.0245C16.4797 12.0042 16.3562 11.9921 16.2333 11.9749C16.0845 11.9542 16.005 11.8594 16.0122 11.7128C16.0187 11.5754 16.1192 11.4765 16.2689 11.4851C16.761 11.5129 17.2363 11.6194 17.6739 11.8511C18.5635 12.3223 19.0718 13.0659 19.2202 14.0589C19.2268 14.104 19.2376 14.1485 19.241 14.1936C19.2494 14.305 19.2547 14.4166 19.2632 14.5637C19.2597 14.5904 19.2547 14.4166 19.2632 14.5637Z" fill="white"/>
<path d="M17.9295 14.5117C17.7501 14.515 17.6541 14.4156 17.6355 14.2512C17.6227 14.1366 17.6125 14.0204 17.5851 13.9087C17.5312 13.6889 17.4144 13.4853 17.2295 13.3506C17.1423 13.2871 17.0433 13.2407 16.9398 13.2107C16.8082 13.1727 16.6715 13.1832 16.5403 13.1511C16.3977 13.1161 16.3188 13.0006 16.3413 12.8669C16.3616 12.7452 16.48 12.6502 16.6131 12.6599C17.4445 12.7199 18.0387 13.1497 18.1235 14.1284C18.1295 14.1975 18.1365 14.2704 18.1212 14.3366C18.0948 14.4496 18.0111 14.5062 17.9295 14.5117C17.75 14.5149 18.0111 14.5062 17.9295 14.5117Z" fill="white"/>
<path d="M24.4642 11.2452L24.4589 11.2241C24.2193 10.2553 23.5082 9.24694 22.6178 8.47969L21.4141 9.54644C22.1299 10.1167 22.7431 10.9068 22.9174 11.5952C23.3936 13.7769 23.3936 15.9884 22.9174 18.1702C22.6319 19.2977 21.1685 20.6995 20.0058 20.9585C18.4836 21.248 16.9493 21.3717 15.4165 21.3292C15.386 21.3284 15.3567 21.3402 15.3355 21.3621C15.118 21.5854 13.9084 22.8272 13.9084 22.8272L12.3904 24.3852C12.2794 24.501 12.0844 24.4223 12.0844 24.2625V21.0665C12.0844 21.0137 12.0467 20.9689 11.9948 20.9586C11.9945 20.9586 11.9942 20.9585 11.9939 20.9585C11.3331 20.8113 10.5757 20.2949 9.99217 19.6697L8.8028 20.7236C9.54561 21.5317 10.5037 22.1849 11.4383 22.4518V24.3811C11.4383 25.0794 12.2892 25.4223 12.7731 24.9184L14.7278 22.8866C15.1518 22.9102 15.5759 22.9235 16 22.9235C17.4411 22.9235 18.8829 22.7872 20.314 22.5142L20.3339 22.5101C22.1039 22.1243 24.0313 20.2698 24.4588 18.5415L24.464 18.5204C24.9926 16.1066 24.9926 13.6589 24.4642 11.2452Z" fill="#D1D1D1"/>
<path d="M18.5294 19.6454C18.6848 19.5976 18.3506 19.5911 18.5294 19.6454V19.6454Z" fill="white"/>
<path d="M19.87 17.604C19.6355 17.3974 19.3822 17.2201 19.1279 17.0389C18.8688 16.8542 18.6082 16.6716 18.3392 16.5013C18.0704 16.3312 17.7515 16.3339 17.5019 16.5379C17.2465 16.7467 17.1285 17.1465 16.7641 17.1891C16.5465 17.2144 16.3569 17.1229 16.168 17.0444C15.4418 16.7422 14.8908 16.2802 14.4744 15.6969L13.5894 16.4813C13.6194 16.5161 13.6481 16.5519 13.6787 16.5863C14.8738 17.9313 16.3826 18.8088 18.0219 19.489C18.1801 19.5546 18.3505 19.5911 18.5293 19.6453C18.3505 19.591 18.6848 19.5975 18.5293 19.6453C18.6848 19.5975 18.8493 19.5734 18.9872 19.4996C19.4754 19.2373 19.8137 18.8266 20.0462 18.3328C20.1734 18.0633 20.0957 17.8027 19.87 17.604Z" fill="#D1D1D1"/>
<path d="M16.0103 10.3406C16.0084 10.3406 16.0065 10.3404 16.0046 10.3404C16.0027 10.3402 16.0051 10.3404 16.0103 10.3406Z" fill="white"/>
<path d="M16.0057 10.3391C16.0075 10.3391 16.0092 10.3393 16.0111 10.3393C16.1301 10.3436 18.0655 10.3969 16.0057 10.3391Z" fill="white"/>
<path d="M19.0803 11.6148L18.703 11.9493C19.2959 12.5261 19.7048 13.2907 19.8217 14.1321C19.8637 14.4347 19.8791 14.7411 19.9012 15.0463C19.9124 15.2004 19.9896 15.3443 20.1616 15.3423C20.3281 15.3402 20.4154 15.1938 20.4033 15.0395C20.3746 14.6729 20.3518 14.3035 20.2875 13.9423C20.1223 13.0143 19.6919 12.2199 19.0803 11.6148Z" fill="#D1D1D1"/>
<path d="M19.22 14.0587C19.112 13.3351 18.8118 12.7446 18.3132 12.2947L17.9369 12.6281C18.1315 12.8008 18.2998 13.0036 18.4294 13.2273C18.6585 13.6225 18.7572 14.0763 18.7579 14.5304C18.758 14.5998 18.7614 14.6731 18.7837 14.7377C18.8589 14.955 19.1852 14.9281 19.2421 14.7127C19.2579 14.6533 19.2597 14.5904 19.2632 14.5637C19.2597 14.5905 19.2546 14.4166 19.2632 14.5637C19.2546 14.4166 19.2494 14.305 19.2409 14.1935C19.2376 14.1482 19.2268 14.1037 19.22 14.0587Z" fill="#D1D1D1"/>
<path d="M19.2632 14.5637C19.2547 14.4166 19.2597 14.5904 19.2632 14.5637V14.5637Z" fill="white"/>
<path d="M17.93 14.5118C17.9329 14.5116 17.9356 14.5101 17.9384 14.5098C17.9306 14.5098 17.9188 14.51 17.9066 14.5105C17.9145 14.5106 17.9217 14.5119 17.93 14.5118Z" fill="white"/>
<path d="M17.9295 14.512C17.9214 14.5121 17.9143 14.511 17.9066 14.5107C17.8678 14.5118 17.8277 14.5138 17.9295 14.512Z" fill="white"/>
<path d="M17.9379 14.5098C17.935 14.5101 17.9323 14.5116 17.9295 14.5118C17.951 14.5103 17.9491 14.5098 17.9379 14.5098Z" fill="white"/>
<path d="M17.5509 12.9703L17.1679 13.3098C17.189 13.3226 17.2097 13.336 17.2298 13.3506C17.4146 13.4853 17.5314 13.6889 17.5853 13.9087C17.6127 14.0203 17.6228 14.1364 17.6358 14.2512C17.6534 14.4083 17.7426 14.5048 17.9068 14.5104C17.9187 14.5101 17.9304 14.5099 17.9379 14.5098C18.0169 14.5011 18.0961 14.4457 18.1214 14.3364C18.1367 14.2704 18.1297 14.1973 18.1236 14.1283C18.076 13.5811 17.8691 13.2056 17.5509 12.9703Z" fill="#D1D1D1"/>
</svg>
