<svg width="48" height="44" viewBox="0 0 48 44" fill="none" xmlns="http://www.w3.org/2000/svg">
<g clip-path="url(#clip0)" filter="url(#filter0_d)">
<path d="M33.2342 15.1993C32.7815 14.6277 32.911 14.3733 33.2342 13.8623C33.24 13.8565 36.9768 8.69284 37.3618 6.94168L37.3642 6.94051C37.5555 6.30234 37.3642 5.83334 36.439 5.83334H33.3777C32.5983 5.83334 32.239 6.23584 32.0465 6.68618C32.0465 6.68618 30.4878 10.4172 28.2828 12.8357C27.5712 13.5345 27.2422 13.7585 26.8537 13.7585C26.6623 13.7585 26.3648 13.5345 26.3648 12.8963V6.94051C26.3648 6.17518 26.1467 5.83334 25.5015 5.83334H20.6878C20.199 5.83334 19.9085 6.19034 19.9085 6.52284C19.9085 7.24851 21.011 7.41534 21.1253 9.45701V13.8868C21.1253 14.8575 20.9492 15.036 20.5583 15.036C19.5177 15.036 16.9918 11.2898 15.495 7.00234C15.1928 6.17051 14.8977 5.83451 14.1125 5.83451H11.05C10.1762 5.83451 10 6.23701 10 6.68734C10 7.48301 11.0407 11.4392 14.8393 16.6658C17.371 20.2335 20.9363 22.1667 24.1797 22.1667C26.1292 22.1667 26.3672 21.7373 26.3672 20.9988C26.3672 17.5898 26.191 17.2678 27.1675 17.2678C27.6202 17.2678 28.3995 17.4918 30.2195 19.2127C32.2997 21.2532 32.6415 22.1667 33.8058 22.1667H36.8672C37.7398 22.1667 38.182 21.7373 37.9277 20.8903C37.3455 19.1088 33.4115 15.4443 33.2342 15.1993Z" fill="white"/>
</g>
<defs>
<filter id="filter0_d" x="0" y="0" width="48" height="49" filterUnits="userSpaceOnUse" color-interpolation-filters="sRGB">
<feFlood flood-opacity="0" result="BackgroundImageFix"/>
<feColorMatrix in="SourceAlpha" type="matrix" values="0 0 0 0 0 0 0 0 0 0 0 0 0 0 0 0 0 0 127 0"/>
<feOffset dy="11"/>
<feGaussianBlur stdDeviation="5"/>
<feColorMatrix type="matrix" values="0 0 0 0 0 0 0 0 0 0 0 0 0 0 0 0 0 0 0.25 0"/>
<feBlend mode="normal" in2="BackgroundImageFix" result="effect1_dropShadow"/>
<feBlend mode="normal" in="SourceGraphic" in2="effect1_dropShadow" result="shape"/>
</filter>
<clipPath id="clip0">
<rect width="28" height="28" fill="white" transform="translate(10)"/>
</clipPath>
</defs>
</svg>
